<svg width="249" height="254" viewBox="0 0 249 254" fill="none" xmlns="http://www.w3.org/2000/svg">
<g filter="url(#filter0_d_0_1)">
<rect x="12" y="10" width="180" height="172" rx="2" fill="#292929"/>
<rect x="43" y="156" width="80" height="7" rx="3.5" fill="white" fill-opacity="0.12"/>
<rect x="43" y="143" width="60" height="7" rx="3.5" fill="white" fill-opacity="0.12"/>
<rect x="43" y="130" width="85" height="7" rx="3.5" fill="white" fill-opacity="0.12"/>
<rect x="37" y="117" width="65" height="7" rx="3.5" fill="white" fill-opacity="0.12"/>
<path fill-rule="evenodd" clip-rule="evenodd" d="M24.943 123.064L29.2712 118L29.8871 118.718L25.249 124.143H24.6351L20 118.718L20.6149 118L24.943 123.064Z" fill="white" fill-opacity="0.12"/>
<rect x="43" y="104" width="60" height="7" rx="3.5" fill="white" fill-opacity="0.12"/>
<rect x="43" y="91" width="50" height="7" rx="3.5" fill="white" fill-opacity="0.12"/>
<rect x="37" y="78" width="75" height="7" rx="3.5" fill="white" fill-opacity="0.12"/>
<path fill-rule="evenodd" clip-rule="evenodd" d="M24.943 83.0642L29.2712 78L29.8871 78.7183L25.249 84.1429H24.6351L20 78.7183L20.6149 78L24.943 83.0642Z" fill="white" fill-opacity="0.12"/>
<path d="M46.7796 57.2727C46.7796 58.2914 46.5888 59.1639 46.2072 59.8903C45.8286 60.6135 45.3116 61.1675 44.656 61.5522C44.0036 61.9369 43.2634 62.1293 42.4355 62.1293C41.6076 62.1293 40.8659 61.9369 40.2104 61.5522C39.5579 61.1644 39.0409 60.6089 38.6592 59.8857C38.2807 59.1593 38.0914 58.2884 38.0914 57.2727C38.0914 56.254 38.2807 55.383 38.6592 54.6598C39.0409 53.9335 39.5579 53.378 40.2104 52.9933C40.8659 52.6085 41.6076 52.4162 42.4355 52.4162C43.2634 52.4162 44.0036 52.6085 44.656 52.9933C45.3116 53.378 45.8286 53.9335 46.2072 54.6598C46.5888 55.383 46.7796 56.254 46.7796 57.2727ZM45.0577 57.2727C45.0577 56.5556 44.9453 55.9509 44.7207 55.4585C44.4991 54.9629 44.1913 54.589 43.7974 54.3366C43.4034 54.0812 42.9495 53.9535 42.4355 53.9535C41.9215 53.9535 41.4676 54.0812 41.0736 54.3366C40.6797 54.589 40.3704 54.9629 40.1457 55.4585C39.9241 55.9509 39.8133 56.5556 39.8133 57.2727C39.8133 57.9898 39.9241 58.5961 40.1457 59.0916C40.3704 59.584 40.6797 59.958 41.0736 60.2134C41.4676 60.4658 41.9215 60.592 42.4355 60.592C42.9495 60.592 43.4034 60.4658 43.7974 60.2134C44.1913 59.958 44.4991 59.584 44.7207 59.0916C44.9453 58.5961 45.0577 57.9898 45.0577 57.2727ZM48.3988 62V52.5455H51.9443C52.6706 52.5455 53.28 52.6809 53.7724 52.9517C54.2679 53.2225 54.6419 53.5949 54.8942 54.0689C55.1497 54.5398 55.2774 55.0753 55.2774 55.6754C55.2774 56.2817 55.1497 56.8203 54.8942 57.2912C54.6388 57.7621 54.2618 58.1329 53.7632 58.4038C53.2646 58.6715 52.6506 58.8054 51.9212 58.8054H49.5714V57.3974H51.6904C52.1151 57.3974 52.4629 57.3235 52.7337 57.1758C53.0045 57.0281 53.2046 56.8249 53.3339 56.5664C53.4662 56.3079 53.5324 56.0109 53.5324 55.6754C53.5324 55.34 53.4662 55.0445 53.3339 54.7891C53.2046 54.5336 53.003 54.3351 52.7291 54.1935C52.4583 54.0489 52.1089 53.9766 51.6812 53.9766H50.1116V62H48.3988ZM56.765 62V52.5455H62.9142V53.9812H58.4778V56.5479H62.5957V57.9837H58.4778V60.5643H62.9511V62H56.765ZM72.4311 52.5455V62H70.9076L66.4527 55.56H66.3742V62H64.6615V52.5455H66.1942L70.6445 58.9901H70.7276V52.5455H72.4311ZM77.5219 62V52.5455H83.671V53.9812H79.2346V56.5479H83.3525V57.9837H79.2346V60.5643H83.708V62H77.5219ZM88.6222 62H85.4184V52.5455H88.6868C89.6255 52.5455 90.4319 52.7347 91.1059 53.1133C91.783 53.4888 92.3031 54.0289 92.6662 54.7337C93.0294 55.4384 93.211 56.2817 93.211 57.2635C93.211 58.2483 93.0279 59.0947 92.6616 59.8026C92.2985 60.5104 91.7737 61.0536 91.0874 61.4322C90.4042 61.8107 89.5824 62 88.6222 62ZM87.1311 60.5181H88.5391C89.1977 60.5181 89.7471 60.3981 90.1872 60.158C90.6273 59.9149 90.9581 59.5533 91.1797 59.0732C91.4013 58.59 91.5121 57.9867 91.5121 57.2635C91.5121 56.5402 91.4013 55.9401 91.1797 55.4631C90.9581 54.983 90.6304 54.6244 90.1964 54.3874C89.7656 54.1474 89.23 54.0273 88.5899 54.0273H87.1311V60.5181ZM96.551 52.5455V62H94.8383V52.5455H96.551ZM97.9902 53.9812V52.5455H105.534V53.9812H102.611V62H100.912V53.9812H97.9902ZM115.017 57.2727C115.017 58.2914 114.826 59.1639 114.444 59.8903C114.066 60.6135 113.549 61.1675 112.893 61.5522C112.241 61.9369 111.501 62.1293 110.673 62.1293C109.845 62.1293 109.103 61.9369 108.448 61.5522C107.795 61.1644 107.278 60.6089 106.897 59.8857C106.518 59.1593 106.329 58.2884 106.329 57.2727C106.329 56.254 106.518 55.383 106.897 54.6598C107.278 53.9335 107.795 53.378 108.448 52.9933C109.103 52.6085 109.845 52.4162 110.673 52.4162C111.501 52.4162 112.241 52.6085 112.893 52.9933C113.549 53.378 114.066 53.9335 114.444 54.6598C114.826 55.383 115.017 56.254 115.017 57.2727ZM113.295 57.2727C113.295 56.5556 113.183 55.9509 112.958 55.4585C112.736 54.9629 112.429 54.589 112.035 54.3366C111.641 54.0812 111.187 53.9535 110.673 53.9535C110.159 53.9535 109.705 54.0812 109.311 54.3366C108.917 54.589 108.608 54.9629 108.383 55.4585C108.161 55.9509 108.051 56.5556 108.051 57.2727C108.051 57.9898 108.161 58.5961 108.383 59.0916C108.608 59.584 108.917 59.958 109.311 60.2134C109.705 60.4658 110.159 60.592 110.673 60.592C111.187 60.592 111.641 60.4658 112.035 60.2134C112.429 59.958 112.736 59.584 112.958 59.0916C113.183 58.5961 113.295 57.9898 113.295 57.2727ZM116.636 62V52.5455H120.182C120.908 52.5455 121.517 52.6716 122.01 52.924C122.505 53.1764 122.879 53.5303 123.132 53.9858C123.387 54.4382 123.515 54.966 123.515 55.5692C123.515 56.1755 123.385 56.7018 123.127 57.1481C122.871 57.5913 122.494 57.9344 121.996 58.1776C121.497 58.4176 120.885 58.5376 120.159 58.5376H117.633V57.1158H119.928C120.352 57.1158 120.7 57.0573 120.971 56.9403C121.242 56.8203 121.442 56.6464 121.571 56.4187C121.703 56.1879 121.77 55.9047 121.77 55.5692C121.77 55.2338 121.703 54.9476 121.571 54.7106C121.439 54.4705 121.237 54.2889 120.966 54.1658C120.696 54.0397 120.346 53.9766 119.918 53.9766H118.349V62H116.636ZM121.52 57.7159L123.861 62H121.95L119.651 57.7159H121.52ZM130.229 55.1445C130.186 54.7414 130.005 54.4274 129.685 54.2028C129.368 53.9781 128.955 53.8658 128.447 53.8658C128.09 53.8658 127.784 53.9196 127.529 54.0273C127.273 54.1351 127.078 54.2812 126.942 54.4659C126.807 54.6506 126.738 54.8614 126.735 55.0984C126.735 55.2953 126.779 55.4661 126.869 55.6108C126.961 55.7554 127.086 55.8786 127.242 55.9801C127.399 56.0786 127.573 56.1617 127.764 56.2294C127.955 56.2971 128.147 56.354 128.341 56.4002L129.228 56.6218C129.585 56.7049 129.928 56.8172 130.257 56.9588C130.589 57.1004 130.886 57.2789 131.148 57.4943C131.413 57.7098 131.622 57.9698 131.776 58.2745C131.93 58.5792 132.007 58.9362 132.007 59.3455C132.007 59.8995 131.865 60.3873 131.582 60.8089C131.299 61.2275 130.89 61.5553 130.354 61.7923C129.822 62.0262 129.177 62.1431 128.42 62.1431C127.684 62.1431 127.046 62.0292 126.504 61.8015C125.965 61.5737 125.544 61.2414 125.239 60.8043C124.937 60.3673 124.774 59.8349 124.75 59.207H126.435C126.459 59.5363 126.561 59.8103 126.739 60.0288C126.918 60.2473 127.15 60.4104 127.436 60.5181C127.726 60.6258 128.049 60.6797 128.406 60.6797C128.778 60.6797 129.104 60.6243 129.385 60.5135C129.668 60.3996 129.889 60.2427 130.049 60.0426C130.209 59.8395 130.291 59.6025 130.294 59.3317C130.291 59.0855 130.219 58.8823 130.077 58.7223C129.935 58.5592 129.737 58.4238 129.481 58.3161C129.229 58.2053 128.934 58.1068 128.595 58.0206L127.519 57.7436C126.741 57.5436 126.125 57.2404 125.673 56.8342C125.224 56.4248 124.999 55.8816 124.999 55.2045C124.999 54.6475 125.15 54.1597 125.451 53.7411C125.756 53.3226 126.17 52.9979 126.693 52.767C127.216 52.5331 127.809 52.4162 128.47 52.4162C129.141 52.4162 129.729 52.5331 130.234 52.767C130.742 52.9979 131.14 53.3195 131.43 53.7319C131.719 54.1412 131.868 54.6121 131.877 55.1445H130.229Z" fill="#CCCCCC"/>
<path d="M38.3402 36V26.5455H44.0462V27.5611H39.4851V30.7557H43.7507V31.7713H39.4851V34.9844H44.12V36H38.3402ZM46.6637 26.5455L49.1012 30.4787H49.1751L51.6126 26.5455H52.9606L49.9876 31.2727L52.9606 36H51.6126L49.1751 32.1406H49.1012L46.6637 36H45.3157L48.3626 31.2727L45.3157 26.5455H46.6637ZM54.4506 36V26.5455H57.6452C58.3869 26.5455 58.9932 26.6793 59.464 26.9471C59.938 27.2118 60.2889 27.5703 60.5166 28.0227C60.7443 28.4751 60.8582 28.9799 60.8582 29.5369C60.8582 30.094 60.7443 30.6003 60.5166 31.0558C60.2919 31.5112 59.9442 31.8744 59.4733 32.1452C59.0024 32.413 58.3992 32.5469 57.6636 32.5469H55.3738V31.5312H57.6267C58.1345 31.5312 58.5423 31.4435 58.8501 31.2681C59.1578 31.0927 59.3809 30.8557 59.5194 30.5572C59.661 30.2556 59.7318 29.9155 59.7318 29.5369C59.7318 29.1584 59.661 28.8198 59.5194 28.5213C59.3809 28.2228 59.1563 27.9889 58.8454 27.8196C58.5346 27.6473 58.1222 27.5611 57.6082 27.5611H55.5954V36H54.4506ZM62.7025 36V26.5455H63.8474V34.9844H68.2423V36H62.7025ZM77.6241 31.2727C77.6241 32.2699 77.4441 33.1316 77.084 33.858C76.7239 34.5843 76.2299 35.1444 75.6021 35.5384C74.9743 35.9323 74.2572 36.1293 73.4508 36.1293C72.6445 36.1293 71.9274 35.9323 71.2995 35.5384C70.6717 35.1444 70.1777 34.5843 69.8176 33.858C69.4576 33.1316 69.2775 32.2699 69.2775 31.2727C69.2775 30.2756 69.4576 29.4138 69.8176 28.6875C70.1777 27.9612 70.6717 27.401 71.2995 27.0071C71.9274 26.6132 72.6445 26.4162 73.4508 26.4162C74.2572 26.4162 74.9743 26.6132 75.6021 27.0071C76.2299 27.401 76.7239 27.9612 77.084 28.6875C77.4441 29.4138 77.6241 30.2756 77.6241 31.2727ZM76.5162 31.2727C76.5162 30.4541 76.3792 29.7631 76.1053 29.1999C75.8345 28.6367 75.4667 28.2105 75.002 27.9212C74.5403 27.6319 74.0233 27.4872 73.4508 27.4872C72.8784 27.4872 72.3598 27.6319 71.8951 27.9212C71.4334 28.2105 71.0656 28.6367 70.7917 29.1999C70.5209 29.7631 70.3855 30.4541 70.3855 31.2727C70.3855 32.0914 70.5209 32.7823 70.7917 33.3455C71.0656 33.9087 71.4334 34.335 71.8951 34.6243C72.3598 34.9136 72.8784 35.0582 73.4508 35.0582C74.0233 35.0582 74.5403 34.9136 75.002 34.6243C75.4667 34.335 75.8345 33.9087 76.1053 33.3455C76.3792 32.7823 76.5162 32.0914 76.5162 31.2727ZM79.5492 36V26.5455H82.7438C83.4824 26.5455 84.0887 26.6716 84.5627 26.924C85.0366 27.1733 85.3875 27.5165 85.6152 27.9535C85.843 28.3905 85.9569 28.8875 85.9569 29.4446C85.9569 30.0017 85.843 30.4956 85.6152 30.9265C85.3875 31.3574 85.0382 31.6959 84.5673 31.9421C84.0964 32.1853 83.4947 32.3068 82.7623 32.3068H80.177V31.2727H82.7253C83.2301 31.2727 83.6363 31.1989 83.9441 31.0511C84.2549 30.9034 84.4796 30.6941 84.6181 30.4233C84.7596 30.1494 84.8304 29.8232 84.8304 29.4446C84.8304 29.0661 84.7596 28.7352 84.6181 28.4521C84.4765 28.1689 84.2503 27.9504 83.9395 27.7965C83.6286 27.6396 83.2177 27.5611 82.7069 27.5611H80.6941V36H79.5492ZM83.9995 31.7528L86.3262 36H84.9966L82.7069 31.7528H83.9995ZM87.8646 36V26.5455H93.5706V27.5611H89.0095V30.7557H93.2751V31.7713H89.0095V34.9844H93.6444V36H87.8646ZM95.6341 36V26.5455H98.8287C99.5674 26.5455 100.174 26.6716 100.648 26.924C101.122 27.1733 101.472 27.5165 101.7 27.9535C101.928 28.3905 102.042 28.8875 102.042 29.4446C102.042 30.0017 101.928 30.4956 101.7 30.9265C101.472 31.3574 101.123 31.6959 100.652 31.9421C100.181 32.1853 99.5797 32.3068 98.8472 32.3068H96.262V31.2727H98.8103C99.315 31.2727 99.7213 31.1989 100.029 31.0511C100.34 30.9034 100.565 30.6941 100.703 30.4233C100.845 30.1494 100.915 29.8232 100.915 29.4446C100.915 29.0661 100.845 28.7352 100.703 28.4521C100.561 28.1689 100.335 27.9504 100.024 27.7965C99.7136 27.6396 99.3027 27.5611 98.7918 27.5611H96.779V36H95.6341ZM100.084 31.7528L102.411 36H101.082L98.7918 31.7528H100.084Z" fill="#CCCCCC"/>
<rect x="12" y="114" width="180" height="13" fill="white" fill-opacity="0.05"/>
</g>
<g filter="url(#filter1_d_0_1)">
<rect x="147" y="120" width="90" height="120" rx="2" fill="#292929"/>
<rect x="153" y="188" width="50" height="7" rx="3.5" fill="white" fill-opacity="0.12"/>
<rect x="153" y="172" width="40" height="7" rx="3.5" fill="white" fill-opacity="0.12"/>
<path d="M160.509 157H159.981C159.95 156.848 159.895 156.714 159.817 156.599C159.74 156.484 159.647 156.388 159.536 156.31C159.426 156.23 159.305 156.17 159.171 156.131C159.038 156.091 158.899 156.071 158.754 156.071C158.49 156.071 158.25 156.138 158.036 156.271C157.823 156.405 157.653 156.602 157.527 156.862C157.402 157.121 157.339 157.44 157.339 157.818C157.339 158.196 157.402 158.515 157.527 158.775C157.653 159.035 157.823 159.232 158.036 159.365C158.25 159.499 158.49 159.565 158.754 159.565C158.899 159.565 159.038 159.545 159.171 159.506C159.305 159.466 159.426 159.407 159.536 159.329C159.647 159.249 159.74 159.152 159.817 159.037C159.895 158.92 159.95 158.787 159.981 158.636H160.509C160.47 158.859 160.397 159.059 160.292 159.235C160.187 159.411 160.056 159.561 159.9 159.685C159.744 159.807 159.568 159.9 159.374 159.964C159.181 160.028 158.974 160.06 158.754 160.06C158.382 160.06 158.051 159.969 157.761 159.787C157.471 159.605 157.243 159.347 157.077 159.011C156.911 158.676 156.828 158.278 156.828 157.818C156.828 157.358 156.911 156.96 157.077 156.625C157.243 156.29 157.471 156.031 157.761 155.849C158.051 155.668 158.382 155.577 158.754 155.577C158.974 155.577 159.181 155.609 159.374 155.673C159.568 155.737 159.744 155.83 159.9 155.954C160.056 156.076 160.187 156.225 160.292 156.401C160.397 156.576 160.47 156.776 160.509 157ZM162.625 160.068C162.329 160.068 162.07 159.998 161.847 159.857C161.625 159.717 161.452 159.52 161.327 159.267C161.204 159.014 161.142 158.719 161.142 158.381C161.142 158.04 161.204 157.742 161.327 157.488C161.452 157.234 161.625 157.036 161.847 156.896C162.07 156.755 162.329 156.685 162.625 156.685C162.92 156.685 163.179 156.755 163.4 156.896C163.623 157.036 163.797 157.234 163.92 157.488C164.045 157.742 164.108 158.04 164.108 158.381C164.108 158.719 164.045 159.014 163.92 159.267C163.797 159.52 163.623 159.717 163.4 159.857C163.179 159.998 162.92 160.068 162.625 160.068ZM162.625 159.616C162.849 159.616 163.034 159.559 163.179 159.444C163.324 159.329 163.431 159.178 163.5 158.99C163.57 158.803 163.605 158.599 163.605 158.381C163.605 158.162 163.57 157.958 163.5 157.769C163.431 157.58 163.324 157.428 163.179 157.311C163.034 157.195 162.849 157.136 162.625 157.136C162.4 157.136 162.216 157.195 162.071 157.311C161.926 157.428 161.819 157.58 161.749 157.769C161.679 157.958 161.645 158.162 161.645 158.381C161.645 158.599 161.679 158.803 161.749 158.99C161.819 159.178 161.926 159.329 162.071 159.444C162.216 159.559 162.4 159.616 162.625 159.616ZM164.875 160V156.727H165.361V157.239H165.404C165.472 157.064 165.582 156.928 165.734 156.832C165.886 156.734 166.068 156.685 166.282 156.685C166.497 156.685 166.677 156.734 166.821 156.832C166.965 156.928 167.078 157.064 167.159 157.239H167.193C167.277 157.07 167.403 156.935 167.571 156.836C167.738 156.735 167.939 156.685 168.174 156.685C168.466 156.685 168.706 156.776 168.892 156.96C169.078 157.141 169.171 157.425 169.171 157.81V160H168.668V157.81C168.668 157.568 168.602 157.396 168.47 157.292C168.338 157.188 168.182 157.136 168.003 157.136C167.773 157.136 167.595 157.206 167.468 157.345C167.342 157.483 167.279 157.658 167.279 157.869V160H166.767V157.759C166.767 157.572 166.707 157.423 166.586 157.309C166.465 157.194 166.31 157.136 166.12 157.136C165.989 157.136 165.867 157.171 165.753 157.241C165.641 157.31 165.55 157.407 165.48 157.531C165.412 157.653 165.378 157.794 165.378 157.955V160H164.875ZM170.09 161.227V156.727H170.576V157.247H170.636C170.672 157.19 170.724 157.118 170.789 157.03C170.856 156.94 170.951 156.861 171.074 156.791C171.199 156.72 171.369 156.685 171.582 156.685C171.857 156.685 172.1 156.754 172.31 156.891C172.521 157.029 172.685 157.224 172.802 157.477C172.92 157.73 172.979 158.028 172.979 158.372C172.979 158.719 172.92 159.019 172.802 159.273C172.685 159.526 172.521 159.722 172.312 159.862C172.104 159.999 171.863 160.068 171.59 160.068C171.38 160.068 171.212 160.033 171.085 159.964C170.959 159.893 170.861 159.812 170.793 159.723C170.725 159.632 170.672 159.557 170.636 159.497H170.593V161.227H170.09ZM170.584 158.364C170.584 158.611 170.621 158.829 170.693 159.018C170.766 159.205 170.871 159.352 171.011 159.459C171.15 159.564 171.32 159.616 171.522 159.616C171.732 159.616 171.908 159.561 172.048 159.45C172.19 159.338 172.297 159.187 172.368 158.999C172.44 158.808 172.476 158.597 172.476 158.364C172.476 158.134 172.441 157.926 172.37 157.741C172.3 157.555 172.195 157.408 172.052 157.3C171.912 157.191 171.735 157.136 171.522 157.136C171.317 157.136 171.146 157.188 171.006 157.292C170.867 157.394 170.762 157.538 170.691 157.722C170.62 157.906 170.584 158.119 170.584 158.364ZM174.709 160.077C174.502 160.077 174.314 160.038 174.145 159.96C173.976 159.88 173.842 159.766 173.742 159.616C173.643 159.466 173.593 159.284 173.593 159.071C173.593 158.884 173.63 158.732 173.704 158.615C173.778 158.497 173.876 158.405 174 158.338C174.123 158.271 174.26 158.222 174.409 158.189C174.56 158.155 174.711 158.128 174.863 158.108C175.062 158.082 175.223 158.063 175.347 158.05C175.472 158.036 175.562 158.013 175.619 157.98C175.677 157.947 175.707 157.891 175.707 157.81V157.793C175.707 157.582 175.649 157.419 175.534 157.303C175.42 157.186 175.248 157.128 175.016 157.128C174.776 157.128 174.588 157.18 174.452 157.286C174.315 157.391 174.219 157.503 174.164 157.622L173.687 157.452C173.772 157.253 173.886 157.098 174.028 156.987C174.171 156.875 174.327 156.797 174.496 156.753C174.667 156.707 174.834 156.685 174.999 156.685C175.104 156.685 175.225 156.697 175.361 156.723C175.499 156.747 175.632 156.798 175.76 156.874C175.889 156.951 175.996 157.067 176.082 157.222C176.167 157.376 176.209 157.584 176.209 157.844V160H175.707V159.557H175.681C175.647 159.628 175.59 159.704 175.511 159.785C175.431 159.866 175.325 159.935 175.193 159.991C175.061 160.048 174.9 160.077 174.709 160.077ZM174.786 159.625C174.985 159.625 175.153 159.586 175.289 159.508C175.427 159.43 175.53 159.329 175.6 159.205C175.671 159.082 175.707 158.952 175.707 158.815V158.355C175.685 158.381 175.638 158.404 175.566 158.425C175.495 158.445 175.413 158.463 175.319 158.479C175.226 158.493 175.136 158.506 175.048 158.517C174.962 158.527 174.891 158.536 174.837 158.543C174.707 158.56 174.584 158.587 174.471 158.626C174.359 158.663 174.268 158.719 174.198 158.794C174.13 158.868 174.096 158.969 174.096 159.097C174.096 159.271 174.16 159.403 174.29 159.493C174.42 159.581 174.586 159.625 174.786 159.625ZM177.127 160V156.727H177.613V157.222H177.647C177.707 157.06 177.815 156.928 177.971 156.827C178.127 156.727 178.303 156.676 178.499 156.676C178.536 156.676 178.582 156.677 178.638 156.678C178.693 156.68 178.735 156.682 178.764 156.685V157.196C178.747 157.192 178.707 157.185 178.646 157.177C178.587 157.167 178.524 157.162 178.457 157.162C178.298 157.162 178.156 157.195 178.031 157.262C177.907 157.327 177.809 157.418 177.737 157.535C177.666 157.65 177.63 157.781 177.63 157.929V160H177.127ZM180.632 160.068C180.317 160.068 180.045 159.999 179.816 159.859C179.589 159.719 179.413 159.523 179.29 159.271C179.168 159.018 179.107 158.724 179.107 158.389C179.107 158.054 179.168 157.759 179.29 157.503C179.413 157.246 179.585 157.045 179.805 156.902C180.027 156.757 180.286 156.685 180.581 156.685C180.752 156.685 180.92 156.713 181.086 156.77C181.252 156.827 181.403 156.919 181.54 157.047C181.676 157.173 181.785 157.341 181.866 157.55C181.947 157.759 181.987 158.016 181.987 158.321V158.534H179.465V158.099H181.476C181.476 157.915 181.439 157.75 181.365 157.605C181.293 157.46 181.189 157.346 181.054 157.262C180.921 157.178 180.763 157.136 180.581 157.136C180.381 157.136 180.207 157.186 180.061 157.286C179.916 157.384 179.805 157.511 179.727 157.669C179.649 157.827 179.609 157.996 179.609 158.176V158.466C179.609 158.713 179.652 158.923 179.737 159.094C179.824 159.265 179.944 159.395 180.097 159.484C180.251 159.572 180.429 159.616 180.632 159.616C180.764 159.616 180.884 159.598 180.99 159.561C181.098 159.523 181.191 159.466 181.269 159.391C181.347 159.314 181.408 159.219 181.45 159.105L181.936 159.241C181.885 159.406 181.799 159.551 181.678 159.676C181.558 159.8 181.408 159.896 181.231 159.966C181.053 160.034 180.854 160.068 180.632 160.068ZM185.301 160L184.107 155.636H184.644L185.556 159.19H185.599L186.528 155.636H187.124L188.053 159.19H188.096L189.008 155.636H189.545L188.352 160H187.806L186.843 156.523H186.809L185.846 160H185.301ZM190.135 160V156.727H190.638V160H190.135ZM190.391 156.182C190.293 156.182 190.208 156.148 190.137 156.082C190.068 156.015 190.033 155.935 190.033 155.841C190.033 155.747 190.068 155.667 190.137 155.6C190.208 155.533 190.293 155.5 190.391 155.5C190.489 155.5 190.573 155.533 190.642 155.6C190.713 155.667 190.749 155.747 190.749 155.841C190.749 155.935 190.713 156.015 190.642 156.082C190.573 156.148 190.489 156.182 190.391 156.182ZM192.982 156.727V157.153H191.286V156.727H192.982ZM191.78 155.943H192.283V159.062C192.283 159.205 192.304 159.311 192.345 159.382C192.388 159.452 192.442 159.499 192.507 159.523C192.574 159.545 192.644 159.557 192.718 159.557C192.773 159.557 192.819 159.554 192.854 159.548C192.89 159.541 192.918 159.536 192.94 159.531L193.042 159.983C193.008 159.996 192.96 160.009 192.899 160.021C192.838 160.036 192.761 160.043 192.667 160.043C192.525 160.043 192.386 160.012 192.249 159.951C192.114 159.89 192.002 159.797 191.913 159.672C191.824 159.547 191.78 159.389 191.78 159.199V155.943ZM194.312 158.031V160H193.809V155.636H194.312V157.239H194.354C194.431 157.07 194.546 156.935 194.699 156.836C194.854 156.735 195.06 156.685 195.317 156.685C195.54 156.685 195.736 156.729 195.903 156.819C196.071 156.907 196.201 157.043 196.293 157.226C196.387 157.408 196.434 157.639 196.434 157.92V160H195.931V157.955C195.931 157.695 195.864 157.494 195.729 157.352C195.595 157.208 195.41 157.136 195.172 157.136C195.008 157.136 194.86 157.171 194.729 157.241C194.6 157.31 194.498 157.412 194.422 157.545C194.349 157.679 194.312 157.841 194.312 158.031ZM201.496 156.727C201.47 156.511 201.367 156.344 201.185 156.224C201.003 156.105 200.78 156.045 200.516 156.045C200.323 156.045 200.153 156.077 200.009 156.139C199.865 156.202 199.753 156.288 199.672 156.397C199.592 156.506 199.553 156.631 199.553 156.77C199.553 156.886 199.58 156.987 199.636 157.07C199.693 157.153 199.765 157.222 199.853 157.277C199.941 157.331 200.033 157.376 200.13 157.411C200.227 157.445 200.315 157.473 200.396 157.494L200.84 157.614C200.953 157.643 201.08 157.685 201.219 157.737C201.359 157.79 201.494 157.862 201.622 157.952C201.751 158.042 201.857 158.157 201.941 158.298C202.025 158.438 202.067 158.611 202.067 158.815C202.067 159.051 202.005 159.264 201.881 159.455C201.759 159.645 201.58 159.796 201.345 159.908C201.11 160.021 200.825 160.077 200.49 160.077C200.178 160.077 199.907 160.026 199.678 159.925C199.451 159.825 199.272 159.684 199.141 159.504C199.012 159.323 198.939 159.114 198.922 158.875H199.467C199.482 159.04 199.537 159.176 199.634 159.284C199.732 159.391 199.855 159.47 200.004 159.523C200.155 159.574 200.317 159.599 200.49 159.599C200.692 159.599 200.873 159.567 201.033 159.501C201.194 159.435 201.321 159.342 201.415 159.224C201.509 159.105 201.555 158.966 201.555 158.807C201.555 158.662 201.515 158.544 201.434 158.453C201.353 158.362 201.247 158.288 201.114 158.232C200.982 158.175 200.84 158.125 200.686 158.082L200.149 157.929C199.808 157.831 199.538 157.691 199.34 157.509C199.141 157.327 199.041 157.089 199.041 156.795C199.041 156.551 199.107 156.338 199.239 156.156C199.373 155.973 199.552 155.831 199.776 155.73C200.002 155.628 200.254 155.577 200.533 155.577C200.814 155.577 201.064 155.627 201.283 155.728C201.502 155.827 201.675 155.964 201.803 156.137C201.932 156.31 202 156.507 202.007 156.727H201.496ZM204.24 160.068C203.924 160.068 203.652 159.999 203.424 159.859C203.196 159.719 203.021 159.523 202.897 159.271C202.775 159.018 202.714 158.724 202.714 158.389C202.714 158.054 202.775 157.759 202.897 157.503C203.021 157.246 203.193 157.045 203.413 156.902C203.634 156.757 203.893 156.685 204.188 156.685C204.359 156.685 204.527 156.713 204.693 156.77C204.86 156.827 205.011 156.919 205.147 157.047C205.284 157.173 205.392 157.341 205.473 157.55C205.554 157.759 205.595 158.016 205.595 158.321V158.534H203.072V158.099H205.083C205.083 157.915 205.046 157.75 204.973 157.605C204.9 157.46 204.796 157.346 204.661 157.262C204.528 157.178 204.37 157.136 204.188 157.136C203.988 157.136 203.815 157.186 203.669 157.286C203.524 157.384 203.412 157.511 203.334 157.669C203.256 157.827 203.217 157.996 203.217 158.176V158.466C203.217 158.713 203.259 158.923 203.345 159.094C203.431 159.265 203.551 159.395 203.705 159.484C203.858 159.572 204.036 159.616 204.24 159.616C204.372 159.616 204.491 159.598 204.598 159.561C204.706 159.523 204.799 159.466 204.877 159.391C204.955 159.314 205.015 159.219 205.058 159.105L205.544 159.241C205.492 159.406 205.407 159.551 205.286 159.676C205.165 159.8 205.016 159.896 204.838 159.966C204.661 160.034 204.461 160.068 204.24 160.068ZM206.862 155.636V160H206.36V155.636H206.862ZM209.156 160.068C208.84 160.068 208.568 159.999 208.34 159.859C208.112 159.719 207.937 159.523 207.813 159.271C207.691 159.018 207.63 158.724 207.63 158.389C207.63 158.054 207.691 157.759 207.813 157.503C207.937 157.246 208.109 157.045 208.329 156.902C208.551 156.757 208.809 156.685 209.104 156.685C209.275 156.685 209.443 156.713 209.609 156.77C209.776 156.827 209.927 156.919 210.063 157.047C210.2 157.173 210.308 157.341 210.389 157.55C210.47 157.759 210.511 158.016 210.511 158.321V158.534H207.988V158.099H209.999C209.999 157.915 209.962 157.75 209.889 157.605C209.816 157.46 209.712 157.346 209.578 157.262C209.444 157.178 209.286 157.136 209.104 157.136C208.904 157.136 208.731 157.186 208.585 157.286C208.44 157.384 208.328 157.511 208.25 157.669C208.172 157.827 208.133 157.996 208.133 158.176V158.466C208.133 158.713 208.176 158.923 208.261 159.094C208.347 159.265 208.467 159.395 208.621 159.484C208.774 159.572 208.953 159.616 209.156 159.616C209.288 159.616 209.407 159.598 209.514 159.561C209.622 159.523 209.715 159.466 209.793 159.391C209.871 159.314 209.931 159.219 209.974 159.105L210.46 159.241C210.408 159.406 210.323 159.551 210.202 159.676C210.081 159.8 209.932 159.896 209.754 159.966C209.577 160.034 209.377 160.068 209.156 160.068ZM212.605 160.068C212.298 160.068 212.034 159.996 211.813 159.851C211.591 159.706 211.421 159.506 211.301 159.252C211.182 158.998 211.122 158.707 211.122 158.381C211.122 158.048 211.183 157.755 211.305 157.501C211.429 157.245 211.601 157.045 211.821 156.902C212.043 156.757 212.301 156.685 212.597 156.685C212.827 156.685 213.034 156.727 213.219 156.812C213.403 156.898 213.555 157.017 213.673 157.17C213.791 157.324 213.864 157.503 213.892 157.707H213.389C213.351 157.558 213.266 157.426 213.134 157.311C213.003 157.195 212.827 157.136 212.605 157.136C212.409 157.136 212.237 157.187 212.09 157.29C211.943 157.391 211.829 157.533 211.747 157.718C211.666 157.901 211.625 158.116 211.625 158.364C211.625 158.616 211.665 158.837 211.744 159.024C211.825 159.212 211.939 159.357 212.085 159.461C212.233 159.565 212.406 159.616 212.605 159.616C212.736 159.616 212.854 159.594 212.961 159.548C213.068 159.503 213.158 159.438 213.232 159.352C213.305 159.267 213.358 159.165 213.389 159.045H213.892C213.864 159.239 213.793 159.413 213.681 159.567C213.57 159.721 213.423 159.843 213.24 159.934C213.058 160.023 212.847 160.068 212.605 160.068ZM216.051 156.727V157.153H214.354V156.727H216.051ZM214.849 155.943H215.352V159.062C215.352 159.205 215.372 159.311 215.413 159.382C215.456 159.452 215.51 159.499 215.575 159.523C215.642 159.545 215.712 159.557 215.786 159.557C215.842 159.557 215.887 159.554 215.923 159.548C215.958 159.541 215.987 159.536 216.008 159.531L216.11 159.983C216.076 159.996 216.028 160.009 215.967 160.021C215.906 160.036 215.829 160.043 215.735 160.043C215.593 160.043 215.454 160.012 215.318 159.951C215.183 159.89 215.07 159.797 214.981 159.672C214.893 159.547 214.849 159.389 214.849 159.199V155.943ZM218.144 160.068C217.829 160.068 217.557 159.999 217.328 159.859C217.101 159.719 216.925 159.523 216.802 159.271C216.679 159.018 216.618 158.724 216.618 158.389C216.618 158.054 216.679 157.759 216.802 157.503C216.925 157.246 217.097 157.045 217.317 156.902C217.539 156.757 217.797 156.685 218.093 156.685C218.263 156.685 218.432 156.713 218.598 156.77C218.764 156.827 218.915 156.919 219.052 157.047C219.188 157.173 219.297 157.341 219.378 157.55C219.459 157.759 219.499 158.016 219.499 158.321V158.534H216.976V158.099H218.988C218.988 157.915 218.951 157.75 218.877 157.605C218.804 157.46 218.701 157.346 218.566 157.262C218.432 157.178 218.275 157.136 218.093 157.136C217.892 157.136 217.719 157.186 217.573 157.286C217.428 157.384 217.316 157.511 217.238 157.669C217.16 157.827 217.121 157.996 217.121 158.176V158.466C217.121 158.713 217.164 158.923 217.249 159.094C217.336 159.265 217.456 159.395 217.609 159.484C217.763 159.572 217.941 159.616 218.144 159.616C218.276 159.616 218.395 159.598 218.502 159.561C218.61 159.523 218.703 159.466 218.781 159.391C218.859 159.314 218.919 159.219 218.962 159.105L219.448 159.241C219.397 159.406 219.311 159.551 219.19 159.676C219.069 159.8 218.92 159.896 218.743 159.966C218.565 160.034 218.366 160.068 218.144 160.068ZM221.5 160.068C221.227 160.068 220.986 159.999 220.777 159.862C220.569 159.722 220.405 159.526 220.287 159.273C220.169 159.019 220.111 158.719 220.111 158.372C220.111 158.028 220.169 157.73 220.287 157.477C220.405 157.224 220.569 157.029 220.78 156.891C220.99 156.754 221.233 156.685 221.508 156.685C221.721 156.685 221.89 156.72 222.013 156.791C222.138 156.861 222.233 156.94 222.299 157.03C222.366 157.118 222.417 157.19 222.454 157.247H222.497V155.636H223V160H222.514V159.497H222.454C222.417 159.557 222.365 159.632 222.297 159.723C222.228 159.812 222.131 159.893 222.005 159.964C221.878 160.033 221.71 160.068 221.5 160.068ZM221.568 159.616C221.77 159.616 221.94 159.564 222.079 159.459C222.218 159.352 222.324 159.205 222.397 159.018C222.469 158.829 222.505 158.611 222.505 158.364C222.505 158.119 222.47 157.906 222.399 157.722C222.328 157.538 222.223 157.394 222.084 157.292C221.944 157.188 221.772 157.136 221.568 157.136C221.355 157.136 221.177 157.191 221.035 157.3C220.895 157.408 220.789 157.555 220.718 157.741C220.648 157.926 220.613 158.134 220.613 158.364C220.613 158.597 220.649 158.808 220.72 158.999C220.792 159.187 220.899 159.338 221.04 159.45C221.182 159.561 221.358 159.616 221.568 159.616Z" fill="white"/>
<path d="M158.886 141.727C158.861 141.511 158.757 141.344 158.575 141.224C158.394 141.105 158.171 141.045 157.906 141.045C157.713 141.045 157.544 141.077 157.399 141.139C157.256 141.202 157.144 141.288 157.063 141.397C156.983 141.506 156.943 141.631 156.943 141.77C156.943 141.886 156.971 141.987 157.026 142.07C157.083 142.153 157.156 142.222 157.244 142.277C157.332 142.331 157.424 142.376 157.521 142.411C157.617 142.445 157.706 142.473 157.787 142.494L158.23 142.614C158.344 142.643 158.47 142.685 158.609 142.737C158.75 142.79 158.884 142.862 159.012 142.952C159.141 143.042 159.248 143.157 159.332 143.298C159.416 143.438 159.457 143.611 159.457 143.815C159.457 144.051 159.396 144.264 159.272 144.455C159.15 144.645 158.971 144.796 158.735 144.908C158.501 145.021 158.216 145.077 157.881 145.077C157.568 145.077 157.298 145.026 157.069 144.925C156.842 144.825 156.663 144.684 156.532 144.504C156.403 144.323 156.33 144.114 156.313 143.875H156.858C156.872 144.04 156.928 144.176 157.024 144.284C157.122 144.391 157.246 144.47 157.395 144.523C157.546 144.574 157.707 144.599 157.881 144.599C158.082 144.599 158.264 144.567 158.424 144.501C158.585 144.435 158.712 144.342 158.805 144.224C158.899 144.105 158.946 143.966 158.946 143.807C158.946 143.662 158.906 143.544 158.825 143.453C158.744 143.362 158.637 143.288 158.505 143.232C158.373 143.175 158.23 143.125 158.077 143.082L157.54 142.929C157.199 142.831 156.929 142.691 156.73 142.509C156.531 142.327 156.432 142.089 156.432 141.795C156.432 141.551 156.498 141.338 156.63 141.156C156.764 140.973 156.943 140.831 157.167 140.73C157.393 140.628 157.645 140.577 157.923 140.577C158.205 140.577 158.455 140.627 158.673 140.728C158.892 140.827 159.065 140.964 159.193 141.137C159.323 141.31 159.391 141.507 159.398 141.727H158.886ZM161.63 145.068C161.315 145.068 161.043 144.999 160.814 144.859C160.587 144.719 160.411 144.523 160.288 144.271C160.166 144.018 160.105 143.724 160.105 143.389C160.105 143.054 160.166 142.759 160.288 142.503C160.411 142.246 160.583 142.045 160.804 141.902C161.025 141.757 161.284 141.685 161.579 141.685C161.75 141.685 161.918 141.713 162.084 141.77C162.25 141.827 162.402 141.919 162.538 142.047C162.674 142.173 162.783 142.341 162.864 142.55C162.945 142.759 162.985 143.016 162.985 143.321V143.534H160.463V143.099H162.474C162.474 142.915 162.437 142.75 162.363 142.605C162.291 142.46 162.187 142.346 162.052 142.262C161.919 142.178 161.761 142.136 161.579 142.136C161.379 142.136 161.206 142.186 161.059 142.286C160.914 142.384 160.803 142.511 160.725 142.669C160.647 142.827 160.608 142.996 160.608 143.176V143.466C160.608 143.713 160.65 143.923 160.735 144.094C160.822 144.265 160.942 144.395 161.095 144.484C161.249 144.572 161.427 144.616 161.63 144.616C161.762 144.616 161.882 144.598 161.988 144.561C162.096 144.523 162.189 144.466 162.267 144.391C162.345 144.314 162.406 144.219 162.448 144.105L162.934 144.241C162.883 144.406 162.797 144.551 162.676 144.676C162.556 144.8 162.407 144.896 162.229 144.966C162.051 145.034 161.852 145.068 161.63 145.068ZM164.253 140.636V145H163.75V140.636H164.253ZM166.546 145.068C166.231 145.068 165.959 144.999 165.73 144.859C165.503 144.719 165.328 144.523 165.204 144.271C165.082 144.018 165.021 143.724 165.021 143.389C165.021 143.054 165.082 142.759 165.204 142.503C165.328 142.246 165.499 142.045 165.72 141.902C165.941 141.757 166.2 141.685 166.495 141.685C166.666 141.685 166.834 141.713 167 141.77C167.166 141.827 167.318 141.919 167.454 142.047C167.59 142.173 167.699 142.341 167.78 142.55C167.861 142.759 167.901 143.016 167.901 143.321V143.534H165.379V143.099H167.39C167.39 142.915 167.353 142.75 167.279 142.605C167.207 142.46 167.103 142.346 166.968 142.262C166.835 142.178 166.677 142.136 166.495 142.136C166.295 142.136 166.122 142.186 165.975 142.286C165.83 142.384 165.719 142.511 165.641 142.669C165.563 142.827 165.524 142.996 165.524 143.176V143.466C165.524 143.713 165.566 143.923 165.651 144.094C165.738 144.265 165.858 144.395 166.011 144.484C166.165 144.572 166.343 144.616 166.546 144.616C166.678 144.616 166.798 144.598 166.904 144.561C167.012 144.523 167.105 144.466 167.183 144.391C167.261 144.314 167.322 144.219 167.364 144.105L167.85 144.241C167.799 144.406 167.713 144.551 167.592 144.676C167.472 144.8 167.323 144.896 167.145 144.966C166.967 145.034 166.768 145.068 166.546 145.068ZM169.996 145.068C169.689 145.068 169.425 144.996 169.203 144.851C168.982 144.706 168.811 144.506 168.692 144.252C168.573 143.998 168.513 143.707 168.513 143.381C168.513 143.048 168.574 142.755 168.696 142.501C168.82 142.245 168.992 142.045 169.212 141.902C169.433 141.757 169.692 141.685 169.987 141.685C170.217 141.685 170.425 141.727 170.609 141.812C170.794 141.898 170.945 142.017 171.063 142.17C171.181 142.324 171.254 142.503 171.283 142.707H170.78C170.742 142.558 170.656 142.426 170.524 142.311C170.394 142.195 170.217 142.136 169.996 142.136C169.8 142.136 169.628 142.187 169.48 142.29C169.334 142.391 169.22 142.533 169.137 142.718C169.056 142.901 169.016 143.116 169.016 143.364C169.016 143.616 169.055 143.837 169.135 144.024C169.216 144.212 169.33 144.357 169.476 144.461C169.624 144.565 169.797 144.616 169.996 144.616C170.127 144.616 170.245 144.594 170.352 144.548C170.458 144.503 170.548 144.438 170.622 144.352C170.696 144.267 170.749 144.165 170.78 144.045H171.283C171.254 144.239 171.184 144.413 171.072 144.567C170.961 144.721 170.814 144.843 170.631 144.934C170.449 145.023 170.237 145.068 169.996 145.068ZM173.441 141.727V142.153H171.745V141.727H173.441ZM172.239 140.943H172.742V144.062C172.742 144.205 172.763 144.311 172.804 144.382C172.847 144.452 172.901 144.499 172.966 144.523C173.033 144.545 173.103 144.557 173.177 144.557C173.232 144.557 173.278 144.554 173.313 144.548C173.349 144.541 173.377 144.536 173.399 144.531L173.501 144.983C173.467 144.996 173.419 145.009 173.358 145.021C173.297 145.036 173.22 145.043 173.126 145.043C172.984 145.043 172.845 145.012 172.708 144.951C172.573 144.89 172.461 144.797 172.372 144.672C172.283 144.547 172.239 144.389 172.239 144.199V140.943ZM175.953 145V140.636H178.57V141.105H176.482V142.58H178.374V143.048H176.482V145H175.953ZM180.496 145.068C180.2 145.068 179.941 144.998 179.718 144.857C179.497 144.717 179.323 144.52 179.198 144.267C179.075 144.014 179.013 143.719 179.013 143.381C179.013 143.04 179.075 142.742 179.198 142.488C179.323 142.234 179.497 142.036 179.718 141.896C179.941 141.755 180.2 141.685 180.496 141.685C180.791 141.685 181.05 141.755 181.271 141.896C181.494 142.036 181.668 142.234 181.791 142.488C181.916 142.742 181.979 143.04 181.979 143.381C181.979 143.719 181.916 144.014 181.791 144.267C181.668 144.52 181.494 144.717 181.271 144.857C181.05 144.998 180.791 145.068 180.496 145.068ZM180.496 144.616C180.72 144.616 180.905 144.559 181.05 144.444C181.195 144.329 181.302 144.178 181.372 143.99C181.441 143.803 181.476 143.599 181.476 143.381C181.476 143.162 181.441 142.958 181.372 142.769C181.302 142.58 181.195 142.428 181.05 142.311C180.905 142.195 180.72 142.136 180.496 142.136C180.271 142.136 180.087 142.195 179.942 142.311C179.797 142.428 179.69 142.58 179.62 142.769C179.551 142.958 179.516 143.162 179.516 143.381C179.516 143.599 179.551 143.803 179.62 143.99C179.69 144.178 179.797 144.329 179.942 144.444C180.087 144.559 180.271 144.616 180.496 144.616ZM182.746 145V141.727H183.232V142.222H183.266C183.326 142.06 183.434 141.928 183.59 141.827C183.746 141.727 183.922 141.676 184.119 141.676C184.155 141.676 184.202 141.677 184.257 141.678C184.312 141.68 184.354 141.682 184.383 141.685V142.196C184.366 142.192 184.327 142.185 184.266 142.177C184.206 142.167 184.143 142.162 184.076 142.162C183.917 142.162 183.775 142.195 183.65 142.262C183.526 142.327 183.428 142.418 183.356 142.535C183.285 142.65 183.249 142.781 183.249 142.929V145H182.746ZM190.246 142H189.717C189.686 141.848 189.631 141.714 189.553 141.599C189.477 141.484 189.383 141.388 189.272 141.31C189.163 141.23 189.041 141.17 188.908 141.131C188.774 141.091 188.635 141.071 188.49 141.071C188.226 141.071 187.987 141.138 187.772 141.271C187.559 141.405 187.389 141.602 187.263 141.862C187.138 142.121 187.075 142.44 187.075 142.818C187.075 143.196 187.138 143.515 187.263 143.775C187.389 144.035 187.559 144.232 187.772 144.365C187.987 144.499 188.226 144.565 188.49 144.565C188.635 144.565 188.774 144.545 188.908 144.506C189.041 144.466 189.163 144.407 189.272 144.329C189.383 144.249 189.477 144.152 189.553 144.037C189.631 143.92 189.686 143.787 189.717 143.636H190.246C190.206 143.859 190.134 144.059 190.028 144.235C189.923 144.411 189.793 144.561 189.636 144.685C189.48 144.807 189.305 144.9 189.11 144.964C188.917 145.028 188.71 145.06 188.49 145.06C188.118 145.06 187.787 144.969 187.497 144.787C187.207 144.605 186.979 144.347 186.813 144.011C186.647 143.676 186.564 143.278 186.564 142.818C186.564 142.358 186.647 141.96 186.813 141.625C186.979 141.29 187.207 141.031 187.497 140.849C187.787 140.668 188.118 140.577 188.49 140.577C188.71 140.577 188.917 140.609 189.11 140.673C189.305 140.737 189.48 140.83 189.636 140.954C189.793 141.076 189.923 141.225 190.028 141.401C190.134 141.576 190.206 141.776 190.246 142ZM192.361 145.068C192.066 145.068 191.806 144.998 191.583 144.857C191.362 144.717 191.188 144.52 191.063 144.267C190.94 144.014 190.878 143.719 190.878 143.381C190.878 143.04 190.94 142.742 191.063 142.488C191.188 142.234 191.362 142.036 191.583 141.896C191.806 141.755 192.066 141.685 192.361 141.685C192.657 141.685 192.915 141.755 193.137 141.896C193.36 142.036 193.533 142.234 193.657 142.488C193.782 142.742 193.844 143.04 193.844 143.381C193.844 143.719 193.782 144.014 193.657 144.267C193.533 144.52 193.36 144.717 193.137 144.857C192.915 144.998 192.657 145.068 192.361 145.068ZM192.361 144.616C192.585 144.616 192.77 144.559 192.915 144.444C193.06 144.329 193.167 144.178 193.237 143.99C193.306 143.803 193.341 143.599 193.341 143.381C193.341 143.162 193.306 142.958 193.237 142.769C193.167 142.58 193.06 142.428 192.915 142.311C192.77 142.195 192.585 142.136 192.361 142.136C192.137 142.136 191.952 142.195 191.807 142.311C191.662 142.428 191.555 142.58 191.485 142.769C191.416 142.958 191.381 143.162 191.381 143.381C191.381 143.599 191.416 143.803 191.485 143.99C191.555 144.178 191.662 144.329 191.807 144.444C191.952 144.559 192.137 144.616 192.361 144.616ZM194.612 145V141.727H195.097V142.239H195.14C195.208 142.064 195.318 141.928 195.47 141.832C195.622 141.734 195.805 141.685 196.018 141.685C196.234 141.685 196.413 141.734 196.557 141.832C196.702 141.928 196.815 142.064 196.896 142.239H196.93C197.014 142.07 197.139 141.935 197.307 141.836C197.475 141.735 197.676 141.685 197.91 141.685C198.203 141.685 198.442 141.776 198.628 141.96C198.814 142.141 198.907 142.425 198.907 142.81V145H198.404V142.81C198.404 142.568 198.338 142.396 198.206 142.292C198.074 142.188 197.918 142.136 197.739 142.136C197.509 142.136 197.331 142.206 197.205 142.345C197.078 142.483 197.015 142.658 197.015 142.869V145H196.504V142.759C196.504 142.572 196.443 142.423 196.323 142.309C196.202 142.194 196.046 142.136 195.856 142.136C195.725 142.136 195.603 142.171 195.489 142.241C195.377 142.31 195.286 142.407 195.217 142.531C195.149 142.653 195.114 142.794 195.114 142.955V145H194.612ZM199.826 146.227V141.727H200.312V142.247H200.372C200.409 142.19 200.46 142.118 200.525 142.03C200.592 141.94 200.687 141.861 200.811 141.791C200.936 141.72 201.105 141.685 201.318 141.685C201.593 141.685 201.836 141.754 202.047 141.891C202.257 142.029 202.421 142.224 202.539 142.477C202.657 142.73 202.716 143.028 202.716 143.372C202.716 143.719 202.657 144.019 202.539 144.273C202.421 144.526 202.258 144.722 202.049 144.862C201.84 144.999 201.599 145.068 201.326 145.068C201.116 145.068 200.948 145.033 200.821 144.964C200.695 144.893 200.598 144.812 200.53 144.723C200.461 144.632 200.409 144.557 200.372 144.497H200.329V146.227H199.826ZM200.321 143.364C200.321 143.611 200.357 143.829 200.429 144.018C200.502 144.205 200.608 144.352 200.747 144.459C200.886 144.564 201.057 144.616 201.258 144.616C201.468 144.616 201.644 144.561 201.785 144.45C201.927 144.338 202.033 144.187 202.104 143.999C202.177 143.808 202.213 143.597 202.213 143.364C202.213 143.134 202.177 142.926 202.106 142.741C202.037 142.555 201.931 142.408 201.789 142.3C201.648 142.191 201.471 142.136 201.258 142.136C201.054 142.136 200.882 142.188 200.743 142.292C200.603 142.394 200.498 142.538 200.427 142.722C200.356 142.906 200.321 143.119 200.321 143.364ZM204.446 145.077C204.238 145.077 204.05 145.038 203.881 144.96C203.712 144.88 203.578 144.766 203.478 144.616C203.379 144.466 203.329 144.284 203.329 144.071C203.329 143.884 203.366 143.732 203.44 143.615C203.514 143.497 203.613 143.405 203.736 143.338C203.86 143.271 203.996 143.222 204.145 143.189C204.296 143.155 204.447 143.128 204.599 143.108C204.798 143.082 204.959 143.063 205.083 143.05C205.208 143.036 205.299 143.013 205.356 142.98C205.414 142.947 205.443 142.891 205.443 142.81V142.793C205.443 142.582 205.385 142.419 205.27 142.303C205.157 142.186 204.984 142.128 204.753 142.128C204.513 142.128 204.324 142.18 204.188 142.286C204.052 142.391 203.956 142.503 203.9 142.622L203.423 142.452C203.508 142.253 203.622 142.098 203.764 141.987C203.907 141.875 204.064 141.797 204.233 141.753C204.403 141.707 204.571 141.685 204.736 141.685C204.841 141.685 204.961 141.697 205.098 141.723C205.236 141.747 205.368 141.798 205.496 141.874C205.625 141.951 205.733 142.067 205.818 142.222C205.903 142.376 205.946 142.584 205.946 142.844V145H205.443V144.557H205.417C205.383 144.628 205.326 144.704 205.247 144.785C205.167 144.866 205.062 144.935 204.929 144.991C204.797 145.048 204.636 145.077 204.446 145.077ZM204.522 144.625C204.721 144.625 204.889 144.586 205.025 144.508C205.163 144.43 205.267 144.329 205.336 144.205C205.407 144.082 205.443 143.952 205.443 143.815V143.355C205.422 143.381 205.375 143.404 205.302 143.425C205.231 143.445 205.149 143.463 205.055 143.479C204.963 143.493 204.873 143.506 204.785 143.517C204.698 143.527 204.628 143.536 204.574 143.543C204.443 143.56 204.321 143.587 204.207 143.626C204.095 143.663 204.004 143.719 203.934 143.794C203.866 143.868 203.832 143.969 203.832 144.097C203.832 144.271 203.897 144.403 204.026 144.493C204.157 144.581 204.322 144.625 204.522 144.625ZM206.864 145V141.727H207.349V142.222H207.383C207.443 142.06 207.551 141.928 207.707 141.827C207.864 141.727 208.04 141.676 208.236 141.676C208.273 141.676 208.319 141.677 208.374 141.678C208.43 141.68 208.472 141.682 208.5 141.685V142.196C208.483 142.192 208.444 142.185 208.383 142.177C208.323 142.167 208.26 142.162 208.193 142.162C208.034 142.162 207.892 142.195 207.767 142.262C207.643 142.327 207.545 142.418 207.473 142.535C207.402 142.65 207.366 142.781 207.366 142.929V145H206.864ZM210.369 145.068C210.053 145.068 209.781 144.999 209.552 144.859C209.325 144.719 209.15 144.523 209.026 144.271C208.904 144.018 208.843 143.724 208.843 143.389C208.843 143.054 208.904 142.759 209.026 142.503C209.15 142.246 209.322 142.045 209.542 141.902C209.763 141.757 210.022 141.685 210.317 141.685C210.488 141.685 210.656 141.713 210.822 141.77C210.989 141.827 211.14 141.919 211.276 142.047C211.413 142.173 211.521 142.341 211.602 142.55C211.683 142.759 211.724 143.016 211.724 143.321V143.534H209.201V143.099H211.212C211.212 142.915 211.175 142.75 211.101 142.605C211.029 142.46 210.925 142.346 210.79 142.262C210.657 142.178 210.499 142.136 210.317 142.136C210.117 142.136 209.944 142.186 209.797 142.286C209.653 142.384 209.541 142.511 209.463 142.669C209.385 142.827 209.346 142.996 209.346 143.176V143.466C209.346 143.713 209.388 143.923 209.474 144.094C209.56 144.265 209.68 144.395 209.834 144.484C209.987 144.572 210.165 144.616 210.369 144.616C210.501 144.616 210.62 144.598 210.726 144.561C210.834 144.523 210.927 144.466 211.006 144.391C211.084 144.314 211.144 144.219 211.187 144.105L211.672 144.241C211.621 144.406 211.535 144.551 211.415 144.676C211.294 144.8 211.145 144.896 210.967 144.966C210.79 145.034 210.59 145.068 210.369 145.068Z" fill="white"/>
<rect x="153" y="126" width="60" height="7" rx="3.5" fill="white" fill-opacity="0.12"/>
<rect x="147" y="152" width="90" height="12" fill="white" fill-opacity="0.05"/>
</g>
<defs>
<filter id="filter0_d_0_1" x="0" y="0" width="204" height="196" filterUnits="userSpaceOnUse" color-interpolation-filters="sRGB">
<feFlood flood-opacity="0" result="BackgroundImageFix"/>
<feColorMatrix in="SourceAlpha" type="matrix" values="0 0 0 0 0 0 0 0 0 0 0 0 0 0 0 0 0 0 127 0" result="hardAlpha"/>
<feOffset dy="2"/>
<feGaussianBlur stdDeviation="6"/>
<feColorMatrix type="matrix" values="0 0 0 0 0 0 0 0 0 0 0 0 0 0 0 0 0 0 0.6 0"/>
<feBlend mode="normal" in2="BackgroundImageFix" result="effect1_dropShadow_0_1"/>
<feBlend mode="normal" in="SourceGraphic" in2="effect1_dropShadow_0_1" result="shape"/>
</filter>
<filter id="filter1_d_0_1" x="135" y="110" width="114" height="144" filterUnits="userSpaceOnUse" color-interpolation-filters="sRGB">
<feFlood flood-opacity="0" result="BackgroundImageFix"/>
<feColorMatrix in="SourceAlpha" type="matrix" values="0 0 0 0 0 0 0 0 0 0 0 0 0 0 0 0 0 0 127 0" result="hardAlpha"/>
<feOffset dy="2"/>
<feGaussianBlur stdDeviation="6"/>
<feColorMatrix type="matrix" values="0 0 0 0 0 0 0 0 0 0 0 0 0 0 0 0 0 0 0.6 0"/>
<feBlend mode="normal" in2="BackgroundImageFix" result="effect1_dropShadow_0_1"/>
<feBlend mode="normal" in="SourceGraphic" in2="effect1_dropShadow_0_1" result="shape"/>
</filter>
</defs>
</svg>
