<svg width="249" height="215" viewBox="0 0 249 215" fill="none" xmlns="http://www.w3.org/2000/svg">
<rect width="249" height="215" fill="#1E1E1E"/>
<g filter="url(#filter0_d_0_1)">
<rect x="12" y="10" width="180" height="172" rx="2" fill="#292929"/>
<rect x="43" y="156" width="80" height="7" rx="3.5" fill="white" fill-opacity="0.12"/>
<rect x="43" y="143" width="60" height="7" rx="3.5" fill="white" fill-opacity="0.12"/>
<rect x="43" y="130" width="85" height="7" rx="3.5" fill="white" fill-opacity="0.12"/>
<rect x="37" y="117" width="65" height="7" rx="3.5" fill="white" fill-opacity="0.12"/>
<path fill-rule="evenodd" clip-rule="evenodd" d="M24.943 123.064L29.2712 118L29.8871 118.718L25.249 124.143H24.6351L20 118.718L20.6149 118L24.943 123.064Z" fill="white" fill-opacity="0.12"/>
<rect x="43" y="104" width="60" height="7" rx="3.5" fill="white" fill-opacity="0.12"/>
<rect x="43" y="91" width="50" height="7" rx="3.5" fill="white" fill-opacity="0.12"/>
<rect x="37" y="78" width="75" height="7" rx="3.5" fill="white" fill-opacity="0.12"/>
<path fill-rule="evenodd" clip-rule="evenodd" d="M24.943 83.0642L29.2712 78L29.8871 78.7183L25.249 84.1429H24.6351L20 78.7183L20.6149 78L24.943 83.0642Z" fill="white" fill-opacity="0.12"/>
<path d="M46.7796 57.2727C46.7796 58.2914 46.5888 59.1639 46.2072 59.8903C45.8286 60.6135 45.3116 61.1675 44.656 61.5522C44.0036 61.9369 43.2634 62.1293 42.4355 62.1293C41.6076 62.1293 40.8659 61.9369 40.2104 61.5522C39.5579 61.1644 39.0409 60.6089 38.6592 59.8857C38.2807 59.1593 38.0914 58.2884 38.0914 57.2727C38.0914 56.254 38.2807 55.383 38.6592 54.6598C39.0409 53.9335 39.5579 53.378 40.2104 52.9933C40.8659 52.6085 41.6076 52.4162 42.4355 52.4162C43.2634 52.4162 44.0036 52.6085 44.656 52.9933C45.3116 53.378 45.8286 53.9335 46.2072 54.6598C46.5888 55.383 46.7796 56.254 46.7796 57.2727ZM45.0577 57.2727C45.0577 56.5556 44.9453 55.9509 44.7207 55.4585C44.4991 54.9629 44.1913 54.589 43.7974 54.3366C43.4034 54.0812 42.9495 53.9535 42.4355 53.9535C41.9215 53.9535 41.4676 54.0812 41.0736 54.3366C40.6797 54.589 40.3704 54.9629 40.1457 55.4585C39.9241 55.9509 39.8133 56.5556 39.8133 57.2727C39.8133 57.9898 39.9241 58.5961 40.1457 59.0916C40.3704 59.584 40.6797 59.958 41.0736 60.2134C41.4676 60.4658 41.9215 60.592 42.4355 60.592C42.9495 60.592 43.4034 60.4658 43.7974 60.2134C44.1913 59.958 44.4991 59.584 44.7207 59.0916C44.9453 58.5961 45.0577 57.9898 45.0577 57.2727ZM48.3988 62V52.5455H51.9443C52.6706 52.5455 53.28 52.6809 53.7724 52.9517C54.2679 53.2225 54.6419 53.5949 54.8942 54.0689C55.1497 54.5398 55.2774 55.0753 55.2774 55.6754C55.2774 56.2817 55.1497 56.8203 54.8942 57.2912C54.6388 57.7621 54.2618 58.1329 53.7632 58.4038C53.2646 58.6715 52.6506 58.8054 51.9212 58.8054H49.5714V57.3974H51.6904C52.1151 57.3974 52.4629 57.3235 52.7337 57.1758C53.0045 57.0281 53.2046 56.8249 53.3339 56.5664C53.4662 56.3079 53.5324 56.0109 53.5324 55.6754C53.5324 55.34 53.4662 55.0445 53.3339 54.7891C53.2046 54.5336 53.003 54.3351 52.7291 54.1935C52.4583 54.0489 52.1089 53.9766 51.6812 53.9766H50.1116V62H48.3988ZM56.765 62V52.5455H62.9142V53.9812H58.4778V56.5479H62.5957V57.9837H58.4778V60.5643H62.9511V62H56.765ZM72.4311 52.5455V62H70.9076L66.4527 55.56H66.3742V62H64.6615V52.5455H66.1942L70.6445 58.9901H70.7276V52.5455H72.4311ZM77.5219 62V52.5455H83.671V53.9812H79.2346V56.5479H83.3525V57.9837H79.2346V60.5643H83.708V62H77.5219ZM88.6222 62H85.4184V52.5455H88.6868C89.6255 52.5455 90.4319 52.7347 91.1059 53.1133C91.783 53.4888 92.3031 54.0289 92.6662 54.7337C93.0294 55.4384 93.211 56.2817 93.211 57.2635C93.211 58.2483 93.0279 59.0947 92.6616 59.8026C92.2985 60.5104 91.7737 61.0536 91.0874 61.4322C90.4042 61.8107 89.5824 62 88.6222 62ZM87.1311 60.5181H88.5391C89.1977 60.5181 89.7471 60.3981 90.1872 60.158C90.6273 59.9149 90.9581 59.5533 91.1797 59.0732C91.4013 58.59 91.5121 57.9867 91.5121 57.2635C91.5121 56.5402 91.4013 55.9401 91.1797 55.4631C90.9581 54.983 90.6304 54.6244 90.1964 54.3874C89.7656 54.1474 89.23 54.0273 88.5899 54.0273H87.1311V60.5181ZM96.551 52.5455V62H94.8383V52.5455H96.551ZM97.9902 53.9812V52.5455H105.534V53.9812H102.611V62H100.912V53.9812H97.9902ZM115.017 57.2727C115.017 58.2914 114.826 59.1639 114.444 59.8903C114.066 60.6135 113.549 61.1675 112.893 61.5522C112.241 61.9369 111.501 62.1293 110.673 62.1293C109.845 62.1293 109.103 61.9369 108.448 61.5522C107.795 61.1644 107.278 60.6089 106.897 59.8857C106.518 59.1593 106.329 58.2884 106.329 57.2727C106.329 56.254 106.518 55.383 106.897 54.6598C107.278 53.9335 107.795 53.378 108.448 52.9933C109.103 52.6085 109.845 52.4162 110.673 52.4162C111.501 52.4162 112.241 52.6085 112.893 52.9933C113.549 53.378 114.066 53.9335 114.444 54.6598C114.826 55.383 115.017 56.254 115.017 57.2727ZM113.295 57.2727C113.295 56.5556 113.183 55.9509 112.958 55.4585C112.736 54.9629 112.429 54.589 112.035 54.3366C111.641 54.0812 111.187 53.9535 110.673 53.9535C110.159 53.9535 109.705 54.0812 109.311 54.3366C108.917 54.589 108.608 54.9629 108.383 55.4585C108.161 55.9509 108.051 56.5556 108.051 57.2727C108.051 57.9898 108.161 58.5961 108.383 59.0916C108.608 59.584 108.917 59.958 109.311 60.2134C109.705 60.4658 110.159 60.592 110.673 60.592C111.187 60.592 111.641 60.4658 112.035 60.2134C112.429 59.958 112.736 59.584 112.958 59.0916C113.183 58.5961 113.295 57.9898 113.295 57.2727ZM116.636 62V52.5455H120.182C120.908 52.5455 121.517 52.6716 122.01 52.924C122.505 53.1764 122.879 53.5303 123.132 53.9858C123.387 54.4382 123.515 54.966 123.515 55.5692C123.515 56.1755 123.385 56.7018 123.127 57.1481C122.871 57.5913 122.494 57.9344 121.996 58.1776C121.497 58.4176 120.885 58.5376 120.159 58.5376H117.633V57.1158H119.928C120.352 57.1158 120.7 57.0573 120.971 56.9403C121.242 56.8203 121.442 56.6464 121.571 56.4187C121.703 56.1879 121.77 55.9047 121.77 55.5692C121.77 55.2338 121.703 54.9476 121.571 54.7106C121.439 54.4705 121.237 54.2889 120.966 54.1658C120.696 54.0397 120.346 53.9766 119.918 53.9766H118.349V62H116.636ZM121.52 57.7159L123.861 62H121.95L119.651 57.7159H121.52ZM130.229 55.1445C130.186 54.7414 130.005 54.4274 129.685 54.2028C129.368 53.9781 128.955 53.8658 128.447 53.8658C128.09 53.8658 127.784 53.9196 127.529 54.0273C127.273 54.1351 127.078 54.2812 126.942 54.4659C126.807 54.6506 126.738 54.8614 126.735 55.0984C126.735 55.2953 126.779 55.4661 126.869 55.6108C126.961 55.7554 127.086 55.8786 127.242 55.9801C127.399 56.0786 127.573 56.1617 127.764 56.2294C127.955 56.2971 128.147 56.354 128.341 56.4002L129.228 56.6218C129.585 56.7049 129.928 56.8172 130.257 56.9588C130.589 57.1004 130.886 57.2789 131.148 57.4943C131.413 57.7098 131.622 57.9698 131.776 58.2745C131.93 58.5792 132.007 58.9362 132.007 59.3455C132.007 59.8995 131.865 60.3873 131.582 60.8089C131.299 61.2275 130.89 61.5553 130.354 61.7923C129.822 62.0262 129.177 62.1431 128.42 62.1431C127.684 62.1431 127.046 62.0292 126.504 61.8015C125.965 61.5737 125.544 61.2414 125.239 60.8043C124.937 60.3673 124.774 59.8349 124.75 59.207H126.435C126.459 59.5363 126.561 59.8103 126.739 60.0288C126.918 60.2473 127.15 60.4104 127.436 60.5181C127.726 60.6258 128.049 60.6797 128.406 60.6797C128.778 60.6797 129.104 60.6243 129.385 60.5135C129.668 60.3996 129.889 60.2427 130.049 60.0426C130.209 59.8395 130.291 59.6025 130.294 59.3317C130.291 59.0855 130.219 58.8823 130.077 58.7223C129.935 58.5592 129.737 58.4238 129.481 58.3161C129.229 58.2053 128.934 58.1068 128.595 58.0206L127.519 57.7436C126.741 57.5436 126.125 57.2404 125.673 56.8342C125.224 56.4248 124.999 55.8816 124.999 55.2045C124.999 54.6475 125.15 54.1597 125.451 53.7411C125.756 53.3226 126.17 52.9979 126.693 52.767C127.216 52.5331 127.809 52.4162 128.47 52.4162C129.141 52.4162 129.729 52.5331 130.234 52.767C130.742 52.9979 131.14 53.3195 131.43 53.7319C131.719 54.1412 131.868 54.6121 131.877 55.1445H130.229Z" fill="#CCCCCC"/>
<path d="M38.3402 36V26.5455H44.0462V27.5611H39.4851V30.7557H43.7507V31.7713H39.4851V34.9844H44.12V36H38.3402ZM46.6637 26.5455L49.1012 30.4787H49.1751L51.6126 26.5455H52.9606L49.9876 31.2727L52.9606 36H51.6126L49.1751 32.1406H49.1012L46.6637 36H45.3157L48.3626 31.2727L45.3157 26.5455H46.6637ZM54.4506 36V26.5455H57.6452C58.3869 26.5455 58.9932 26.6793 59.464 26.9471C59.938 27.2118 60.2889 27.5703 60.5166 28.0227C60.7443 28.4751 60.8582 28.9799 60.8582 29.5369C60.8582 30.094 60.7443 30.6003 60.5166 31.0558C60.2919 31.5112 59.9442 31.8744 59.4733 32.1452C59.0024 32.413 58.3992 32.5469 57.6636 32.5469H55.3738V31.5312H57.6267C58.1345 31.5312 58.5423 31.4435 58.8501 31.2681C59.1578 31.0927 59.3809 30.8557 59.5194 30.5572C59.661 30.2556 59.7318 29.9155 59.7318 29.5369C59.7318 29.1584 59.661 28.8198 59.5194 28.5213C59.3809 28.2228 59.1563 27.9889 58.8454 27.8196C58.5346 27.6473 58.1222 27.5611 57.6082 27.5611H55.5954V36H54.4506ZM62.7025 36V26.5455H63.8474V34.9844H68.2423V36H62.7025ZM77.6241 31.2727C77.6241 32.2699 77.4441 33.1316 77.084 33.858C76.7239 34.5843 76.2299 35.1444 75.6021 35.5384C74.9743 35.9323 74.2572 36.1293 73.4508 36.1293C72.6445 36.1293 71.9274 35.9323 71.2995 35.5384C70.6717 35.1444 70.1777 34.5843 69.8176 33.858C69.4576 33.1316 69.2775 32.2699 69.2775 31.2727C69.2775 30.2756 69.4576 29.4138 69.8176 28.6875C70.1777 27.9612 70.6717 27.401 71.2995 27.0071C71.9274 26.6132 72.6445 26.4162 73.4508 26.4162C74.2572 26.4162 74.9743 26.6132 75.6021 27.0071C76.2299 27.401 76.7239 27.9612 77.084 28.6875C77.4441 29.4138 77.6241 30.2756 77.6241 31.2727ZM76.5162 31.2727C76.5162 30.4541 76.3792 29.7631 76.1053 29.1999C75.8345 28.6367 75.4667 28.2105 75.002 27.9212C74.5403 27.6319 74.0233 27.4872 73.4508 27.4872C72.8784 27.4872 72.3598 27.6319 71.8951 27.9212C71.4334 28.2105 71.0656 28.6367 70.7917 29.1999C70.5209 29.7631 70.3855 30.4541 70.3855 31.2727C70.3855 32.0914 70.5209 32.7823 70.7917 33.3455C71.0656 33.9087 71.4334 34.335 71.8951 34.6243C72.3598 34.9136 72.8784 35.0582 73.4508 35.0582C74.0233 35.0582 74.5403 34.9136 75.002 34.6243C75.4667 34.335 75.8345 33.9087 76.1053 33.3455C76.3792 32.7823 76.5162 32.0914 76.5162 31.2727ZM79.5492 36V26.5455H82.7438C83.4824 26.5455 84.0887 26.6716 84.5627 26.924C85.0366 27.1733 85.3875 27.5165 85.6152 27.9535C85.843 28.3905 85.9569 28.8875 85.9569 29.4446C85.9569 30.0017 85.843 30.4956 85.6152 30.9265C85.3875 31.3574 85.0382 31.6959 84.5673 31.9421C84.0964 32.1853 83.4947 32.3068 82.7623 32.3068H80.177V31.2727H82.7253C83.2301 31.2727 83.6363 31.1989 83.9441 31.0511C84.2549 30.9034 84.4796 30.6941 84.6181 30.4233C84.7596 30.1494 84.8304 29.8232 84.8304 29.4446C84.8304 29.0661 84.7596 28.7352 84.6181 28.4521C84.4765 28.1689 84.2503 27.9504 83.9395 27.7965C83.6286 27.6396 83.2177 27.5611 82.7069 27.5611H80.6941V36H79.5492ZM83.9995 31.7528L86.3262 36H84.9966L82.7069 31.7528H83.9995ZM87.8646 36V26.5455H93.5706V27.5611H89.0095V30.7557H93.2751V31.7713H89.0095V34.9844H93.6444V36H87.8646ZM95.6341 36V26.5455H98.8287C99.5674 26.5455 100.174 26.6716 100.648 26.924C101.122 27.1733 101.472 27.5165 101.7 27.9535C101.928 28.3905 102.042 28.8875 102.042 29.4446C102.042 30.0017 101.928 30.4956 101.7 30.9265C101.472 31.3574 101.123 31.6959 100.652 31.9421C100.181 32.1853 99.5797 32.3068 98.8472 32.3068H96.262V31.2727H98.8103C99.315 31.2727 99.7213 31.1989 100.029 31.0511C100.34 30.9034 100.565 30.6941 100.703 30.4233C100.845 30.1494 100.915 29.8232 100.915 29.4446C100.915 29.0661 100.845 28.7352 100.703 28.4521C100.561 28.1689 100.335 27.9504 100.024 27.7965C99.7136 27.6396 99.3027 27.5611 98.7918 27.5611H96.779V36H95.6341ZM100.084 31.7528L102.411 36H101.082L98.7918 31.7528H100.084Z" fill="#CCCCCC"/>
<rect x="12" y="75" width="180" height="13" fill="white" fill-opacity="0.05"/>
</g>
<g filter="url(#filter1_d_0_1)">
<rect x="147" y="81" width="90" height="120" rx="2" fill="#292929"/>
<rect x="153" y="133" width="50" height="7" rx="3.5" fill="white" fill-opacity="0.12"/>
<rect x="153" y="117" width="40" height="7" rx="3.5" fill="white" fill-opacity="0.12"/>
<path d="M158.886 102.727C158.861 102.511 158.757 102.344 158.575 102.224C158.394 102.105 158.171 102.045 157.906 102.045C157.713 102.045 157.544 102.077 157.399 102.139C157.256 102.202 157.144 102.288 157.063 102.397C156.983 102.506 156.943 102.631 156.943 102.77C156.943 102.886 156.971 102.987 157.026 103.07C157.083 103.153 157.156 103.222 157.244 103.277C157.332 103.331 157.424 103.376 157.521 103.411C157.617 103.445 157.706 103.473 157.787 103.494L158.23 103.614C158.344 103.643 158.47 103.685 158.609 103.737C158.75 103.79 158.884 103.862 159.012 103.952C159.141 104.042 159.248 104.157 159.332 104.298C159.416 104.438 159.457 104.611 159.457 104.815C159.457 105.051 159.396 105.264 159.272 105.455C159.15 105.645 158.971 105.796 158.735 105.908C158.501 106.021 158.216 106.077 157.881 106.077C157.568 106.077 157.298 106.026 157.069 105.925C156.842 105.825 156.663 105.684 156.532 105.504C156.403 105.323 156.33 105.114 156.313 104.875H156.858C156.872 105.04 156.928 105.176 157.024 105.284C157.122 105.391 157.246 105.47 157.395 105.523C157.546 105.574 157.707 105.599 157.881 105.599C158.082 105.599 158.264 105.567 158.424 105.501C158.585 105.435 158.712 105.342 158.805 105.224C158.899 105.105 158.946 104.966 158.946 104.807C158.946 104.662 158.906 104.544 158.825 104.453C158.744 104.362 158.637 104.288 158.505 104.232C158.373 104.175 158.23 104.125 158.077 104.082L157.54 103.929C157.199 103.831 156.929 103.691 156.73 103.509C156.531 103.327 156.432 103.089 156.432 102.795C156.432 102.551 156.498 102.338 156.63 102.156C156.764 101.973 156.943 101.831 157.167 101.73C157.393 101.628 157.645 101.577 157.923 101.577C158.205 101.577 158.455 101.627 158.673 101.728C158.892 101.827 159.065 101.964 159.193 102.137C159.323 102.31 159.391 102.507 159.398 102.727H158.886ZM161.63 106.068C161.315 106.068 161.043 105.999 160.814 105.859C160.587 105.719 160.411 105.523 160.288 105.271C160.166 105.018 160.105 104.724 160.105 104.389C160.105 104.054 160.166 103.759 160.288 103.503C160.411 103.246 160.583 103.045 160.804 102.902C161.025 102.757 161.284 102.685 161.579 102.685C161.75 102.685 161.918 102.713 162.084 102.77C162.25 102.827 162.402 102.919 162.538 103.047C162.674 103.173 162.783 103.341 162.864 103.55C162.945 103.759 162.985 104.016 162.985 104.321V104.534H160.463V104.099H162.474C162.474 103.915 162.437 103.75 162.363 103.605C162.291 103.46 162.187 103.346 162.052 103.262C161.919 103.178 161.761 103.136 161.579 103.136C161.379 103.136 161.206 103.186 161.059 103.286C160.914 103.384 160.803 103.511 160.725 103.669C160.647 103.827 160.608 103.996 160.608 104.176V104.466C160.608 104.713 160.65 104.923 160.735 105.094C160.822 105.265 160.942 105.395 161.095 105.484C161.249 105.572 161.427 105.616 161.63 105.616C161.762 105.616 161.882 105.598 161.988 105.561C162.096 105.523 162.189 105.466 162.267 105.391C162.345 105.314 162.406 105.219 162.448 105.105L162.934 105.241C162.883 105.406 162.797 105.551 162.676 105.676C162.556 105.8 162.407 105.896 162.229 105.966C162.051 106.034 161.852 106.068 161.63 106.068ZM164.253 101.636V106H163.75V101.636H164.253ZM166.546 106.068C166.231 106.068 165.959 105.999 165.73 105.859C165.503 105.719 165.328 105.523 165.204 105.271C165.082 105.018 165.021 104.724 165.021 104.389C165.021 104.054 165.082 103.759 165.204 103.503C165.328 103.246 165.499 103.045 165.72 102.902C165.941 102.757 166.2 102.685 166.495 102.685C166.666 102.685 166.834 102.713 167 102.77C167.166 102.827 167.318 102.919 167.454 103.047C167.59 103.173 167.699 103.341 167.78 103.55C167.861 103.759 167.901 104.016 167.901 104.321V104.534H165.379V104.099H167.39C167.39 103.915 167.353 103.75 167.279 103.605C167.207 103.46 167.103 103.346 166.968 103.262C166.835 103.178 166.677 103.136 166.495 103.136C166.295 103.136 166.122 103.186 165.975 103.286C165.83 103.384 165.719 103.511 165.641 103.669C165.563 103.827 165.524 103.996 165.524 104.176V104.466C165.524 104.713 165.566 104.923 165.651 105.094C165.738 105.265 165.858 105.395 166.011 105.484C166.165 105.572 166.343 105.616 166.546 105.616C166.678 105.616 166.798 105.598 166.904 105.561C167.012 105.523 167.105 105.466 167.183 105.391C167.261 105.314 167.322 105.219 167.364 105.105L167.85 105.241C167.799 105.406 167.713 105.551 167.592 105.676C167.472 105.8 167.323 105.896 167.145 105.966C166.967 106.034 166.768 106.068 166.546 106.068ZM169.996 106.068C169.689 106.068 169.425 105.996 169.203 105.851C168.982 105.706 168.811 105.506 168.692 105.252C168.573 104.998 168.513 104.707 168.513 104.381C168.513 104.048 168.574 103.755 168.696 103.501C168.82 103.245 168.992 103.045 169.212 102.902C169.433 102.757 169.692 102.685 169.987 102.685C170.217 102.685 170.425 102.727 170.609 102.812C170.794 102.898 170.945 103.017 171.063 103.17C171.181 103.324 171.254 103.503 171.283 103.707H170.78C170.742 103.558 170.656 103.426 170.524 103.311C170.394 103.195 170.217 103.136 169.996 103.136C169.8 103.136 169.628 103.187 169.48 103.29C169.334 103.391 169.22 103.533 169.137 103.718C169.056 103.901 169.016 104.116 169.016 104.364C169.016 104.616 169.055 104.837 169.135 105.024C169.216 105.212 169.33 105.357 169.476 105.461C169.624 105.565 169.797 105.616 169.996 105.616C170.127 105.616 170.245 105.594 170.352 105.548C170.458 105.503 170.548 105.438 170.622 105.352C170.696 105.267 170.749 105.165 170.78 105.045H171.283C171.254 105.239 171.184 105.413 171.072 105.567C170.961 105.721 170.814 105.843 170.631 105.934C170.449 106.023 170.237 106.068 169.996 106.068ZM173.441 102.727V103.153H171.745V102.727H173.441ZM172.239 101.943H172.742V105.062C172.742 105.205 172.763 105.311 172.804 105.382C172.847 105.452 172.901 105.499 172.966 105.523C173.033 105.545 173.103 105.557 173.177 105.557C173.232 105.557 173.278 105.554 173.313 105.548C173.349 105.541 173.377 105.536 173.399 105.531L173.501 105.983C173.467 105.996 173.419 106.009 173.358 106.021C173.297 106.036 173.22 106.043 173.126 106.043C172.984 106.043 172.845 106.012 172.708 105.951C172.573 105.89 172.461 105.797 172.372 105.672C172.283 105.547 172.239 105.389 172.239 105.199V101.943ZM175.953 106V101.636H178.57V102.105H176.482V103.58H178.374V104.048H176.482V106H175.953ZM180.496 106.068C180.2 106.068 179.941 105.998 179.718 105.857C179.497 105.717 179.323 105.52 179.198 105.267C179.075 105.014 179.013 104.719 179.013 104.381C179.013 104.04 179.075 103.742 179.198 103.488C179.323 103.234 179.497 103.036 179.718 102.896C179.941 102.755 180.2 102.685 180.496 102.685C180.791 102.685 181.05 102.755 181.271 102.896C181.494 103.036 181.668 103.234 181.791 103.488C181.916 103.742 181.979 104.04 181.979 104.381C181.979 104.719 181.916 105.014 181.791 105.267C181.668 105.52 181.494 105.717 181.271 105.857C181.05 105.998 180.791 106.068 180.496 106.068ZM180.496 105.616C180.72 105.616 180.905 105.559 181.05 105.444C181.195 105.329 181.302 105.178 181.372 104.99C181.441 104.803 181.476 104.599 181.476 104.381C181.476 104.162 181.441 103.958 181.372 103.769C181.302 103.58 181.195 103.428 181.05 103.311C180.905 103.195 180.72 103.136 180.496 103.136C180.271 103.136 180.087 103.195 179.942 103.311C179.797 103.428 179.69 103.58 179.62 103.769C179.551 103.958 179.516 104.162 179.516 104.381C179.516 104.599 179.551 104.803 179.62 104.99C179.69 105.178 179.797 105.329 179.942 105.444C180.087 105.559 180.271 105.616 180.496 105.616ZM182.746 106V102.727H183.232V103.222H183.266C183.326 103.06 183.434 102.928 183.59 102.827C183.746 102.727 183.922 102.676 184.119 102.676C184.155 102.676 184.202 102.677 184.257 102.678C184.312 102.68 184.354 102.682 184.383 102.685V103.196C184.366 103.192 184.327 103.185 184.266 103.177C184.206 103.167 184.143 103.162 184.076 103.162C183.917 103.162 183.775 103.195 183.65 103.262C183.526 103.327 183.428 103.418 183.356 103.535C183.285 103.65 183.249 103.781 183.249 103.929V106H182.746ZM190.246 103H189.717C189.686 102.848 189.631 102.714 189.553 102.599C189.477 102.484 189.383 102.388 189.272 102.31C189.163 102.23 189.041 102.17 188.908 102.131C188.774 102.091 188.635 102.071 188.49 102.071C188.226 102.071 187.987 102.138 187.772 102.271C187.559 102.405 187.389 102.602 187.263 102.862C187.138 103.121 187.075 103.44 187.075 103.818C187.075 104.196 187.138 104.515 187.263 104.775C187.389 105.035 187.559 105.232 187.772 105.365C187.987 105.499 188.226 105.565 188.49 105.565C188.635 105.565 188.774 105.545 188.908 105.506C189.041 105.466 189.163 105.407 189.272 105.329C189.383 105.249 189.477 105.152 189.553 105.037C189.631 104.92 189.686 104.787 189.717 104.636H190.246C190.206 104.859 190.134 105.059 190.028 105.235C189.923 105.411 189.793 105.561 189.636 105.685C189.48 105.807 189.305 105.9 189.11 105.964C188.917 106.028 188.71 106.06 188.49 106.06C188.118 106.06 187.787 105.969 187.497 105.787C187.207 105.605 186.979 105.347 186.813 105.011C186.647 104.676 186.564 104.278 186.564 103.818C186.564 103.358 186.647 102.96 186.813 102.625C186.979 102.29 187.207 102.031 187.497 101.849C187.787 101.668 188.118 101.577 188.49 101.577C188.71 101.577 188.917 101.609 189.11 101.673C189.305 101.737 189.48 101.83 189.636 101.954C189.793 102.076 189.923 102.225 190.028 102.401C190.134 102.576 190.206 102.776 190.246 103ZM192.361 106.068C192.066 106.068 191.806 105.998 191.583 105.857C191.362 105.717 191.188 105.52 191.063 105.267C190.94 105.014 190.878 104.719 190.878 104.381C190.878 104.04 190.94 103.742 191.063 103.488C191.188 103.234 191.362 103.036 191.583 102.896C191.806 102.755 192.066 102.685 192.361 102.685C192.657 102.685 192.915 102.755 193.137 102.896C193.36 103.036 193.533 103.234 193.657 103.488C193.782 103.742 193.844 104.04 193.844 104.381C193.844 104.719 193.782 105.014 193.657 105.267C193.533 105.52 193.36 105.717 193.137 105.857C192.915 105.998 192.657 106.068 192.361 106.068ZM192.361 105.616C192.585 105.616 192.77 105.559 192.915 105.444C193.06 105.329 193.167 105.178 193.237 104.99C193.306 104.803 193.341 104.599 193.341 104.381C193.341 104.162 193.306 103.958 193.237 103.769C193.167 103.58 193.06 103.428 192.915 103.311C192.77 103.195 192.585 103.136 192.361 103.136C192.137 103.136 191.952 103.195 191.807 103.311C191.662 103.428 191.555 103.58 191.485 103.769C191.416 103.958 191.381 104.162 191.381 104.381C191.381 104.599 191.416 104.803 191.485 104.99C191.555 105.178 191.662 105.329 191.807 105.444C191.952 105.559 192.137 105.616 192.361 105.616ZM194.612 106V102.727H195.097V103.239H195.14C195.208 103.064 195.318 102.928 195.47 102.832C195.622 102.734 195.805 102.685 196.018 102.685C196.234 102.685 196.413 102.734 196.557 102.832C196.702 102.928 196.815 103.064 196.896 103.239H196.93C197.014 103.07 197.139 102.935 197.307 102.836C197.475 102.735 197.676 102.685 197.91 102.685C198.203 102.685 198.442 102.776 198.628 102.96C198.814 103.141 198.907 103.425 198.907 103.81V106H198.404V103.81C198.404 103.568 198.338 103.396 198.206 103.292C198.074 103.188 197.918 103.136 197.739 103.136C197.509 103.136 197.331 103.206 197.205 103.345C197.078 103.483 197.015 103.658 197.015 103.869V106H196.504V103.759C196.504 103.572 196.443 103.423 196.323 103.309C196.202 103.194 196.046 103.136 195.856 103.136C195.725 103.136 195.603 103.171 195.489 103.241C195.377 103.31 195.286 103.407 195.217 103.531C195.149 103.653 195.114 103.794 195.114 103.955V106H194.612ZM199.826 107.227V102.727H200.312V103.247H200.372C200.409 103.19 200.46 103.118 200.525 103.03C200.592 102.94 200.687 102.861 200.811 102.791C200.936 102.72 201.105 102.685 201.318 102.685C201.593 102.685 201.836 102.754 202.047 102.891C202.257 103.029 202.421 103.224 202.539 103.477C202.657 103.73 202.716 104.028 202.716 104.372C202.716 104.719 202.657 105.019 202.539 105.273C202.421 105.526 202.258 105.722 202.049 105.862C201.84 105.999 201.599 106.068 201.326 106.068C201.116 106.068 200.948 106.033 200.821 105.964C200.695 105.893 200.598 105.812 200.53 105.723C200.461 105.632 200.409 105.557 200.372 105.497H200.329V107.227H199.826ZM200.321 104.364C200.321 104.611 200.357 104.829 200.429 105.018C200.502 105.205 200.608 105.352 200.747 105.459C200.886 105.564 201.057 105.616 201.258 105.616C201.468 105.616 201.644 105.561 201.785 105.45C201.927 105.338 202.033 105.187 202.104 104.999C202.177 104.808 202.213 104.597 202.213 104.364C202.213 104.134 202.177 103.926 202.106 103.741C202.037 103.555 201.931 103.408 201.789 103.3C201.648 103.191 201.471 103.136 201.258 103.136C201.054 103.136 200.882 103.188 200.743 103.292C200.603 103.394 200.498 103.538 200.427 103.722C200.356 103.906 200.321 104.119 200.321 104.364ZM204.446 106.077C204.238 106.077 204.05 106.038 203.881 105.96C203.712 105.88 203.578 105.766 203.478 105.616C203.379 105.466 203.329 105.284 203.329 105.071C203.329 104.884 203.366 104.732 203.44 104.615C203.514 104.497 203.613 104.405 203.736 104.338C203.86 104.271 203.996 104.222 204.145 104.189C204.296 104.155 204.447 104.128 204.599 104.108C204.798 104.082 204.959 104.063 205.083 104.05C205.208 104.036 205.299 104.013 205.356 103.98C205.414 103.947 205.443 103.891 205.443 103.81V103.793C205.443 103.582 205.385 103.419 205.27 103.303C205.157 103.186 204.984 103.128 204.753 103.128C204.513 103.128 204.324 103.18 204.188 103.286C204.052 103.391 203.956 103.503 203.9 103.622L203.423 103.452C203.508 103.253 203.622 103.098 203.764 102.987C203.907 102.875 204.064 102.797 204.233 102.753C204.403 102.707 204.571 102.685 204.736 102.685C204.841 102.685 204.961 102.697 205.098 102.723C205.236 102.747 205.368 102.798 205.496 102.874C205.625 102.951 205.733 103.067 205.818 103.222C205.903 103.376 205.946 103.584 205.946 103.844V106H205.443V105.557H205.417C205.383 105.628 205.326 105.704 205.247 105.785C205.167 105.866 205.062 105.935 204.929 105.991C204.797 106.048 204.636 106.077 204.446 106.077ZM204.522 105.625C204.721 105.625 204.889 105.586 205.025 105.508C205.163 105.43 205.267 105.329 205.336 105.205C205.407 105.082 205.443 104.952 205.443 104.815V104.355C205.422 104.381 205.375 104.404 205.302 104.425C205.231 104.445 205.149 104.463 205.055 104.479C204.963 104.493 204.873 104.506 204.785 104.517C204.698 104.527 204.628 104.536 204.574 104.543C204.443 104.56 204.321 104.587 204.207 104.626C204.095 104.663 204.004 104.719 203.934 104.794C203.866 104.868 203.832 104.969 203.832 105.097C203.832 105.271 203.897 105.403 204.026 105.493C204.157 105.581 204.322 105.625 204.522 105.625ZM206.864 106V102.727H207.349V103.222H207.383C207.443 103.06 207.551 102.928 207.707 102.827C207.864 102.727 208.04 102.676 208.236 102.676C208.273 102.676 208.319 102.677 208.374 102.678C208.43 102.68 208.472 102.682 208.5 102.685V103.196C208.483 103.192 208.444 103.185 208.383 103.177C208.323 103.167 208.26 103.162 208.193 103.162C208.034 103.162 207.892 103.195 207.767 103.262C207.643 103.327 207.545 103.418 207.473 103.535C207.402 103.65 207.366 103.781 207.366 103.929V106H206.864ZM210.369 106.068C210.053 106.068 209.781 105.999 209.552 105.859C209.325 105.719 209.15 105.523 209.026 105.271C208.904 105.018 208.843 104.724 208.843 104.389C208.843 104.054 208.904 103.759 209.026 103.503C209.15 103.246 209.322 103.045 209.542 102.902C209.763 102.757 210.022 102.685 210.317 102.685C210.488 102.685 210.656 102.713 210.822 102.77C210.989 102.827 211.14 102.919 211.276 103.047C211.413 103.173 211.521 103.341 211.602 103.55C211.683 103.759 211.724 104.016 211.724 104.321V104.534H209.201V104.099H211.212C211.212 103.915 211.175 103.75 211.101 103.605C211.029 103.46 210.925 103.346 210.79 103.262C210.657 103.178 210.499 103.136 210.317 103.136C210.117 103.136 209.944 103.186 209.797 103.286C209.653 103.384 209.541 103.511 209.463 103.669C209.385 103.827 209.346 103.996 209.346 104.176V104.466C209.346 104.713 209.388 104.923 209.474 105.094C209.56 105.265 209.68 105.395 209.834 105.484C209.987 105.572 210.165 105.616 210.369 105.616C210.501 105.616 210.62 105.598 210.726 105.561C210.834 105.523 210.927 105.466 211.006 105.391C211.084 105.314 211.144 105.219 211.187 105.105L211.672 105.241C211.621 105.406 211.535 105.551 211.415 105.676C211.294 105.8 211.145 105.896 210.967 105.966C210.79 106.034 210.59 106.068 210.369 106.068Z" fill="white"/>
<rect x="153" y="87" width="60" height="7" rx="3.5" fill="white" fill-opacity="0.12"/>
<rect x="147" y="98" width="90" height="12" fill="white" fill-opacity="0.05"/>
</g>
<defs>
<filter id="filter0_d_0_1" x="0" y="0" width="204" height="196" filterUnits="userSpaceOnUse" color-interpolation-filters="sRGB">
<feFlood flood-opacity="0" result="BackgroundImageFix"/>
<feColorMatrix in="SourceAlpha" type="matrix" values="0 0 0 0 0 0 0 0 0 0 0 0 0 0 0 0 0 0 127 0" result="hardAlpha"/>
<feOffset dy="2"/>
<feGaussianBlur stdDeviation="6"/>
<feColorMatrix type="matrix" values="0 0 0 0 0 0 0 0 0 0 0 0 0 0 0 0 0 0 0.6 0"/>
<feBlend mode="normal" in2="BackgroundImageFix" result="effect1_dropShadow_0_1"/>
<feBlend mode="normal" in="SourceGraphic" in2="effect1_dropShadow_0_1" result="shape"/>
</filter>
<filter id="filter1_d_0_1" x="135" y="71" width="114" height="144" filterUnits="userSpaceOnUse" color-interpolation-filters="sRGB">
<feFlood flood-opacity="0" result="BackgroundImageFix"/>
<feColorMatrix in="SourceAlpha" type="matrix" values="0 0 0 0 0 0 0 0 0 0 0 0 0 0 0 0 0 0 127 0" result="hardAlpha"/>
<feOffset dy="2"/>
<feGaussianBlur stdDeviation="6"/>
<feColorMatrix type="matrix" values="0 0 0 0 0 0 0 0 0 0 0 0 0 0 0 0 0 0 0.6 0"/>
<feBlend mode="normal" in2="BackgroundImageFix" result="effect1_dropShadow_0_1"/>
<feBlend mode="normal" in="SourceGraphic" in2="effect1_dropShadow_0_1" result="shape"/>
</filter>
</defs>
</svg>
