<svg width="249" height="144" viewBox="0 0 249 144" fill="none" xmlns="http://www.w3.org/2000/svg">
<g filter="url(#filter0_d_0_1)">
<rect x="12" y="10" width="225" height="120" rx="2" fill="#292929"/>
<path fill-rule="evenodd" clip-rule="evenodd" d="M36.5417 108.292L40 108.983V113.017L36.5417 113.708L38.5 116.642L35.6417 119.5L32.7083 117.542L32.0167 121H27.9833L27.2917 117.542L24.3583 119.5L21.5 116.642L23.4583 113.708L20 113.017V108.983L23.4583 108.292L21.5 105.358L24.3583 102.5L27.2917 104.458L27.9833 101H32.0167L32.7083 104.458L35.6417 102.5L38.5 105.358L36.5417 108.292ZM35.2333 112.517L38.5667 111.842V110.175L35.2333 109.5L34.7833 108.417L36.6917 105.558L35.5 104.367L32.6417 106.275L31.5583 105.825L30.8833 102.492H29.2167L28.5417 105.825L27.4583 106.275L24.6 104.367L23.4083 105.558L25.3167 108.417L24.8667 109.5L21.5333 110.175V111.842L24.8667 112.517L25.3167 113.6L23.4083 116.458L24.6 117.65L27.4583 115.742L28.5417 116.192L29.2167 119.525H30.8833L31.5583 116.192L32.6417 115.742L35.5 117.65L36.6917 116.458L34.7833 113.6L35.2333 112.517ZM28.4117 108.623C28.8818 108.309 29.4346 108.142 30 108.142C30.7574 108.144 31.4832 108.446 32.0187 108.981C32.5543 109.517 32.8561 110.243 32.8583 111C32.8583 111.494 32.7303 111.979 32.4869 112.409C32.2435 112.838 31.8929 113.198 31.4694 113.451C31.0458 113.705 30.5638 113.845 30.0701 113.857C29.5765 113.869 29.0881 113.753 28.6526 113.521C28.2172 113.288 27.8494 112.946 27.5852 112.529C27.321 112.112 27.1694 111.633 27.1451 111.14C27.1209 110.647 27.2248 110.156 27.4467 109.715C27.6687 109.274 28.0011 108.898 28.4117 108.623ZM29.2083 112.185C29.4425 112.342 29.7183 112.425 30 112.425C30.1874 112.426 30.3732 112.39 30.5466 112.319C30.72 112.248 30.8775 112.143 31.0101 112.01C31.1426 111.878 31.2476 111.72 31.3188 111.547C31.39 111.373 31.4261 111.187 31.425 111C31.425 110.754 31.3612 110.512 31.2398 110.298C31.1184 110.083 30.9437 109.904 30.7325 109.778C30.5213 109.651 30.281 109.582 30.0349 109.576C29.7888 109.57 29.5453 109.627 29.3282 109.743C29.1111 109.86 28.9277 110.03 28.796 110.238C28.6643 110.446 28.5888 110.684 28.5767 110.93C28.5646 111.176 28.6165 111.421 28.7272 111.641C28.8379 111.861 29.0036 112.048 29.2083 112.185Z" fill="#CCCCCC"/>
<rect x="12" y="10" width="36" height="120" fill="black" fill-opacity="0.2"/>
<rect x="60" y="16" width="75" height="7" rx="3.5" fill="white" fill-opacity="0.12"/>
<rect x="60" y="86" width="75" height="7" rx="3.5" fill="white" fill-opacity="0.12"/>
<rect x="60" y="29" width="40" height="7" rx="3.5" fill="white" fill-opacity="0.12"/>
<rect x="60" y="48" width="50" height="7" rx="3.5" fill="white" fill-opacity="0.12"/>
<rect x="60" y="74" width="40" height="7" rx="3.5" fill="white" fill-opacity="0.12"/>
<rect x="104" y="74" width="50" height="7" rx="3.5" fill="white" fill-opacity="0.12"/>
<rect x="60" y="61" width="80" height="7" rx="3.5" fill="white" fill-opacity="0.12"/>
<rect x="103" y="29" width="70" height="7" rx="3.5" fill="white" fill-opacity="0.12"/>
</g>
<defs>
<filter id="filter0_d_0_1" x="0" y="0" width="249" height="144" filterUnits="userSpaceOnUse" color-interpolation-filters="sRGB">
<feFlood flood-opacity="0" result="BackgroundImageFix"/>
<feColorMatrix in="SourceAlpha" type="matrix" values="0 0 0 0 0 0 0 0 0 0 0 0 0 0 0 0 0 0 127 0" result="hardAlpha"/>
<feOffset dy="2"/>
<feGaussianBlur stdDeviation="6"/>
<feColorMatrix type="matrix" values="0 0 0 0 0 0 0 0 0 0 0 0 0 0 0 0 0 0 0.6 0"/>
<feBlend mode="normal" in2="BackgroundImageFix" result="effect1_dropShadow_0_1"/>
<feBlend mode="normal" in="SourceGraphic" in2="effect1_dropShadow_0_1" result="shape"/>
</filter>
</defs>
</svg>
